<svg width="167" height="110" viewBox="0 0 167 110" fill="none" xmlns="http://www.w3.org/2000/svg">
<path d="M110.691 1H8.16494L3.36914 34.5706H47.1794L68.0476 47.2729H102.525L122.486 34.5706H148.345L140.633 16.878V10.5268L110.691 1Z" stroke="green" stroke-width="2"/>
<path d="M121.579 29.1268L114.32 10.0732L139.271 17.7854L146.076 33.6634H141.54L121.579 29.1268Z" fill="green" stroke="green" stroke-width="2"/>
<path fill-rule="evenodd" clip-rule="evenodd" d="M166.945 75.8523C166.945 94.6434 151.712 109.877 132.921 109.877C114.13 109.877 98.8967 94.6434 98.8967 75.8523C98.8967 57.0613 114.13 41.8281 132.921 41.8281C151.712 41.8281 166.945 57.0613 166.945 75.8523ZM164.486 75.8523C164.486 93.2849 150.354 107.417 132.921 107.417C115.489 107.417 101.357 93.2849 101.357 75.8523C101.357 58.4196 115.489 44.2876 132.921 44.2876C150.354 44.2876 164.486 58.4196 164.486 75.8523ZM68.0484 75.8526C68.0484 94.6436 52.8153 109.877 34.0242 109.877C15.2332 109.877 0 94.6436 0 75.8526C0 57.0615 15.2332 41.8284 34.0242 41.8284C52.8153 41.8284 68.0484 57.0615 68.0484 75.8526ZM65.5885 75.8523C65.5885 93.2849 51.4565 107.417 34.0238 107.417C16.5911 107.417 2.45918 93.2849 2.45918 75.8523C2.45918 58.4196 16.5911 44.2876 34.0238 44.2876C51.4565 44.2876 65.5885 58.4196 65.5885 75.8523ZM34.0234 60.5973C41.9473 60.5973 48.371 67.021 48.371 74.9449C48.371 82.8688 41.9473 89.2925 34.0234 89.2925C26.0995 89.2925 19.6758 82.8688 19.6758 74.9449C19.6758 67.021 26.0995 60.5973 34.0234 60.5973ZM34.0233 79.4545C36.5137 79.4545 38.5326 77.4356 38.5326 74.9452C38.5326 72.4549 36.5137 70.436 34.0233 70.436C31.5329 70.436 29.5141 72.4549 29.5141 74.9452C29.5141 77.4356 31.5329 79.4545 34.0233 79.4545ZM147.268 75.8524C147.268 67.9285 140.845 61.5049 132.921 61.5049C124.997 61.5049 118.573 67.9285 118.573 75.8524C118.573 83.7764 124.997 90.2 132.921 90.2C140.845 90.2 147.268 83.7764 147.268 75.8524ZM137.43 75.8525C137.43 78.3429 135.411 80.3617 132.921 80.3617C130.43 80.3617 128.411 78.3429 128.411 75.8525C128.411 73.3621 130.43 71.3433 132.921 71.3433C135.411 71.3433 137.43 73.3621 137.43 75.8525Z" fill="green"/>
<path fill-rule="evenodd" clip-rule="evenodd" d="M3.17578 54.258V35.0244H46.7268L68.5023 47.7268H102.073L122.034 35.0244H148.799L157.73 47.5278C151.105 41.7202 142.424 38.2 132.922 38.2C112.126 38.2 95.2681 55.058 95.2681 75.8535C95.2681 76.4618 95.2826 77.0668 95.3111 77.6681H71.6353C71.6638 77.0668 71.6782 76.4618 71.6782 75.8535C71.6782 55.058 54.8202 38.2 34.0248 38.2C21.264 38.2 9.98588 44.5478 3.17578 54.258Z" fill="green"/>
<path d="M3.17578 35.0244V34.5244H2.67578V35.0244H3.17578ZM3.17578 54.258H2.67578V55.8417L3.58514 54.5451L3.17578 54.258ZM46.7268 35.0244L46.9787 34.5925L46.862 34.5244H46.7268V35.0244ZM68.5023 47.7268L68.2504 48.1587L68.3671 48.2268H68.5023V47.7268ZM102.073 47.7268V48.2268H102.218L102.341 48.1486L102.073 47.7268ZM122.034 35.0244V34.5244H121.888L121.765 34.6026L122.034 35.0244ZM148.799 35.0244L149.206 34.7338L149.057 34.5244H148.799V35.0244ZM157.73 47.5278L157.401 47.9038L158.137 47.2372L157.73 47.5278ZM95.3111 77.6681V78.1681H95.8354L95.8105 77.6444L95.3111 77.6681ZM71.6353 77.6681L71.1358 77.6444L71.111 78.1681H71.6353V77.6681ZM2.67578 35.0244V54.258H3.67578V35.0244H2.67578ZM46.7268 34.5244H3.17578V35.5244H46.7268V34.5244ZM68.7542 47.2949L46.9787 34.5925L46.4748 35.4563L68.2504 48.1587L68.7542 47.2949ZM102.073 47.2268H68.5023V48.2268H102.073V47.2268ZM121.765 34.6026L101.804 47.305L102.341 48.1486L122.302 35.4462L121.765 34.6026ZM148.799 34.5244H122.034V35.5244H148.799V34.5244ZM158.137 47.2372L149.206 34.7338L148.393 35.315L157.324 47.8184L158.137 47.2372ZM132.922 38.7C142.299 38.7 150.863 42.1731 157.401 47.9038L158.06 47.1518C151.347 41.2674 142.55 37.7 132.922 37.7V38.7ZM95.7681 75.8535C95.7681 55.3342 112.402 38.7 132.922 38.7V37.7C111.85 37.7 94.7681 54.7819 94.7681 75.8535H95.7681ZM95.8105 77.6444C95.7824 77.051 95.7681 76.4539 95.7681 75.8535H94.7681C94.7681 76.4697 94.7828 77.0826 94.8117 77.6918L95.8105 77.6444ZM71.6353 78.1681H95.3111V77.1681H71.6353V78.1681ZM71.1782 75.8535C71.1782 76.4539 71.164 77.051 71.1358 77.6444L72.1347 77.6918C72.1636 77.0826 72.1782 76.4697 72.1782 75.8535H71.1782ZM34.0248 38.7C54.5441 38.7 71.1782 55.3342 71.1782 75.8535H72.1782C72.1782 54.7819 55.0963 37.7 34.0248 37.7V38.7ZM3.58514 54.5451C10.3057 44.9626 21.4339 38.7 34.0248 38.7V37.7C21.0942 37.7 9.6661 44.133 2.76642 53.9709L3.58514 54.5451Z" fill="green"/>
</svg>
