<svg width="76" height="73" viewBox="0 0 76 73" fill="none" xmlns="http://www.w3.org/2000/svg">
<rect x="1" y="67" width="74" height="5" stroke="black" stroke-width="2"/>
<rect x="8" y="57" width="60" height="10" stroke="black" stroke-width="2"/>
<rect x="35" y="47" width="6" height="10" stroke="black" stroke-width="2"/>
<path d="M29 5H47V47H29V17.4091" stroke="black" stroke-width="2"/>
<rect x="34" y="1" width="8" height="4" stroke="black" stroke-width="2"/>
<rect x="38.5" y="9.5" width="4" height="1" stroke="black"/>
<rect x="38.5" y="15.5" width="4" height="1" stroke="black"/>
<rect x="38.5" y="21.5" width="4" height="1" stroke="black"/>
<rect x="38.5" y="27.5" width="4" height="1" stroke="black"/>
<rect x="38.5" y="33.5" width="4" height="1" stroke="black"/>
<rect x="38.5" y="39.5" width="4" height="1" stroke="black"/>
<rect x="54" y="53" width="6" height="4" stroke="black" stroke-width="2"/>
<path d="M29.5 18C25.9101 18 23 15.0899 23 11.5C23 7.91015 25.9101 5 29.5 5" stroke="black" stroke-width="2"/>
</svg>
