<svg width="63" height="57" viewBox="0 0 63 57" fill="none" xmlns="http://www.w3.org/2000/svg">
<rect x="54" y="1" width="8" height="20" stroke="black" stroke-width="2"/>
<circle cx="25" cy="30" r="12" stroke="black" stroke-width="2"/>
<circle r="2" transform="matrix(1 0 0 -1 25 30)" stroke="black" stroke-width="2"/>
<path d="M53.5 18H26" stroke="black" stroke-width="2"/>
<path d="M9.97183 46L8 51V56H43V51L40.0423 46" stroke="black" stroke-width="2"/>
<path d="M54.4996 4.5H24.9996C23.1663 4.5 18.6996 4.79996 15.4996 6C7.99989 8.81251 2.83877 17.0284 1.99961 25C0.999558 34.5 6.49961 44.5 15.4996 48C24.4996 51.5 34.9995 50 40.4995 45C45.9995 40 48.9996 35 48.9996 28.5C48.9996 25.7 47.6663 20.6667 46.9996 18.5" stroke="black" stroke-width="2"/>
<path d="M16.5 29.5H33.5" stroke="black" stroke-width="2"/>
<path d="M20.75 22.1388L29.25 36.8612" stroke="black" stroke-width="2"/>
<path d="M29.25 22.1388L20.75 36.8612" stroke="black" stroke-width="2"/>
</svg>
