<svg width="64" height="64" viewBox="0 0 64 64" fill="none" xmlns="http://www.w3.org/2000/svg">
<path d="M23.5 13L17 16.5L1 8V54.5L17 62.5L31.5 55L48 62.5L62.5 54.5V9L48 16.5" stroke="black" stroke-width="2"/>
<circle cx="36" cy="14" r="5" stroke="black" stroke-width="2"/>
<path d="M48 13C48 14.6126 47.4882 16.6559 46.5989 18.9486C45.716 21.225 44.4904 23.6738 43.13 26.0743C40.7339 30.3023 37.9523 34.3236 35.9772 36.905C33.4489 33.79 30.6019 29.6886 28.314 25.5234C25.7621 20.8777 24 16.3191 24 13C24 6.37258 29.3726 1 36 1C42.6274 1 48 6.37258 48 13Z" stroke="black" stroke-width="2"/>
</svg>
