<svg width="72" height="60" viewBox="0 0 72 60" fill="none" xmlns="http://www.w3.org/2000/svg">
<path d="M10.8232 37.6472V30.306H30.235L38.4703 23.5295H53.1762V37.6472H10.8232Z" stroke="black" stroke-width="2"/>
<rect x="53" y="21" width="6.23529" height="19.1765" stroke="black" stroke-width="2"/>
<path d="M28.6471 19.4119C28.6471 23.7327 25.1443 27.2354 20.8235 27.2354C16.5027 27.2354 13 23.7327 13 19.4119V4.52954H28.6471V19.4119Z" stroke="black" stroke-width="2"/>
<rect x="9.4707" y="1" width="22.7059" height="3.88235" stroke="black" stroke-width="2"/>
<path d="M8.67092 58.9999L15.668 37.4705H26.3006L16.0741 58.9999H8.67092Z" stroke="black" stroke-width="2"/>
<rect x="1.23535" y="31.5881" width="9.76471" height="3.88235" stroke="black" stroke-width="2"/>
<path d="M28.4707 37.647V47.0587" stroke="black" stroke-width="2"/>
<path d="M62.5884 30.5881L72.0001 30.5881" stroke="black" stroke-width="2"/>
<path d="M63.2192 25.8823L71.3701 21.1764" stroke="black" stroke-width="2"/>
<path d="M63.2192 35.2939L71.3701 39.9998" stroke="black" stroke-width="2"/>
</svg>
