<svg width="48" height="74" viewBox="0 0 48 74" fill="none" xmlns="http://www.w3.org/2000/svg">
<path fill-rule="evenodd" clip-rule="evenodd" d="M12.685 0H35.3144C43.5519 0 47.9906 18.9077 47.9906 36.7051C47.9906 54.5024 43.4838 73.4102 35.3144 73.4102H12.685C4.44751 73.4102 0.00878906 54.5024 0.00878906 36.7051C0.00878906 18.9077 4.51559 0 12.685 0ZM2.73193 36.7051C2.73193 56.7515 7.974 70.6338 12.685 70.6338L13.9377 70.7588L12.0042 67.9819C11.8507 67.7671 11.7609 67.5117 11.7455 67.2466L11.4732 61.4575L7.64722 56.3765C7.3674 56.0044 7.29065 55.5137 7.44299 55.0713L9.17218 50.1016L5.94525 44.1738C5.75107 43.7808 5.75107 43.3174 5.94525 42.9243L8.28714 37.7183L5.94525 32.5127C5.76007 32.127 5.76007 31.6763 5.94525 31.291L8.88626 25.5991L7.08896 18.6577C6.97153 18.1431 7.15091 17.605 7.55191 17.2695L10.9558 14.4932L11.4732 8.6626C11.5063 8.31494 11.6667 7.99268 11.9225 7.76025C13.2903 6.25928 14.4619 4.58398 15.4082 2.77637H12.685C7.974 2.77637 2.73193 16.6587 2.73193 36.7051ZM14.4687 66.6079L17.3825 70.6338L22.3931 70.7588L20.4596 67.9819C20.3061 67.7671 20.2162 67.5117 20.2009 67.2466L19.915 61.4575L16.0345 56.3765C15.7547 56.0044 15.6779 55.5137 15.8303 55.0713L17.5595 50.1016L14.3326 44.1738C14.1383 43.7808 14.1383 43.3174 14.3326 42.9243L16.6744 37.7183L14.3326 32.5127C14.1474 32.127 14.1474 31.6763 14.3326 31.291L17.2735 25.5991L15.4763 18.6577C15.3588 18.1431 15.5382 17.605 15.9392 17.2695L19.3431 14.4932L19.8878 8.6626C19.9208 8.31494 20.0813 7.99268 20.3371 7.76025C21.7048 6.25928 22.8764 4.58398 23.8227 2.77637H18.5534C17.3369 5.16504 15.8517 7.40137 14.1283 9.43994L13.6109 15.2847C13.5777 15.6602 13.3958 16.0063 13.1071 16.2422L9.92105 18.7969L11.623 25.3213C11.7105 25.6567 11.6717 26.0132 11.5141 26.3208L8.64117 31.9712L10.9695 37.1353C11.1373 37.5054 11.1373 37.9316 10.9695 38.3018L8.64117 43.4521L11.8272 49.3101C12.0179 49.6582 12.0524 50.0728 11.9225 50.4487L10.2342 55.2935L13.8696 60.1108C14.0379 60.3306 14.1375 60.5962 14.1555 60.8745L14.4687 66.6079ZM22.9105 66.6216L25.7834 70.6338H30.2357C25.2796 64.7476 22.6381 50.3931 22.6381 36.7051C22.6381 23.0171 25.2796 8.6626 30.2085 2.79053H26.8862C25.6816 5.17188 24.2102 7.40332 22.502 9.43994L21.9846 15.2847C21.9514 15.6602 21.7694 16.0063 21.4808 16.2422L18.322 18.7969L20.0239 25.3213C20.1114 25.6567 20.0726 26.0132 19.915 26.3208L17.0557 31.9712L19.4521 37.1353C19.6199 37.5054 19.6199 37.9316 19.4521 38.3018L17.1237 43.4521L20.3098 49.3101C20.5005 49.6582 20.535 50.0728 20.4052 50.4487L18.7168 55.2935L22.3522 60.1108C22.5205 60.3306 22.6201 60.5962 22.6381 60.8745L22.9105 66.6216ZM25.3613 36.7051C25.3613 56.6958 30.6033 70.6338 35.3144 70.6338C40.0254 70.6338 45.2675 56.7515 45.2675 36.7051C45.2675 16.6587 40.0254 2.77637 35.3144 2.77637C30.6033 2.77637 25.3613 16.7144 25.3613 36.7051ZM28.6836 36.7051C28.6836 27.834 30.1813 11.064 35.8046 11.064C41.4279 11.064 42.912 27.834 42.912 36.7051C42.912 45.5762 41.4415 62.3462 35.8046 62.3462C30.1677 62.3462 28.6836 45.5762 28.6836 36.7051ZM31.4067 36.7051C31.4067 51.7817 34.4839 59.5698 35.8046 59.5698C37.1253 59.5698 40.2025 51.7817 40.2025 36.7051H40.1889C40.1889 21.6284 37.1253 13.8403 35.8046 13.8403C34.4839 13.8403 31.4067 21.6284 31.4067 36.7051Z" fill="black"/>
</svg>
