<svg width="79" height="37" viewBox="0 0 79 37" fill="none" xmlns="http://www.w3.org/2000/svg">
<path d="M1 8.47946C1 4.78767 5.53562 1.62329 8.91096 1.62329C12.2863 1.62329 48.9932 1.62329 67.4521 1.62329C73.7808 1.62329 78 5.31507 78 8.47946" stroke="black" stroke-width="2"/>
<path d="M64.8149 8.47954H14.1848C12.4268 8.12794 6.80151 9.53429 7.32865 16.9179C7.87693 24.5976 13.6577 35.3768 21.0413 35.3768H56.3769C66.9249 35.3768 70.6166 22.1919 71.6714 16.9179C72.7262 11.6439 69.0344 8.47954 64.8149 8.47954Z" stroke="black" stroke-width="2"/>
<circle cx="22.6237" cy="23.774" r="5.85616" stroke="black" stroke-width="2"/>
<circle cx="13.6575" cy="14.8082" r="2.16438" stroke="black" stroke-width="2"/>
<circle cx="31.5892" cy="14.8082" r="2.16438" stroke="black" stroke-width="2"/>
<circle cx="48.4661" cy="14.8082" r="2.16438" stroke="black" stroke-width="2"/>
<circle cx="65.3421" cy="14.8082" r="2.16438" stroke="black" stroke-width="2"/>
<circle cx="39.4997" cy="23.774" r="5.85616" stroke="black" stroke-width="2"/>
<circle cx="57.4314" cy="23.774" r="5.85616" stroke="black" stroke-width="2"/>
</svg>
