<svg width="171" height="101" viewBox="0 0 171 101" fill="none" xmlns="http://www.w3.org/2000/svg">
<rect y="100" width="171" height="1" fill="white"/>
<path d="M107.444 1H30.2197L26.6074 26.3715H59.606L75.3242 35.9715H101.294L116.328 26.3715H135.805L129.996 13V8.20002L107.444 1Z" stroke="white" stroke-width="2"/>
<path d="M115.645 22.2575L110.178 7.85742L128.971 13.686L134.097 25.686H130.68L115.645 22.2575Z" fill="white" stroke="white" stroke-width="2"/>
<path fill-rule="evenodd" clip-rule="evenodd" d="M8.41675 58.6097C11.5333 58.6097 14.3141 57.2687 16.1328 55.1713C17.9515 57.2687 20.7324 58.6097 23.8489 58.6097C26.9654 58.6097 29.7463 57.2687 31.565 55.1713C33.3836 57.2687 36.1645 58.6097 39.281 58.6097C42.397 58.6097 45.1774 57.2692 46.9961 55.1724C48.8148 57.2692 51.5952 58.6097 54.7112 58.6097C57.8275 58.6097 60.6081 57.2689 62.4268 55.1718C64.2455 57.2689 67.0261 58.6097 70.1424 58.6097C73.2595 58.6097 76.0408 57.2682 77.8594 55.1702C79.6781 57.2682 82.4594 58.6097 85.5765 58.6097C88.6922 58.6097 91.4724 57.2694 93.2911 55.173C95.1098 57.2694 97.89 58.6097 101.006 58.6097C104.122 58.6097 106.904 57.2685 108.722 55.1707C110.541 57.2685 113.322 58.6097 116.439 58.6097C119.555 58.6097 122.336 57.2689 124.154 55.1719C125.973 57.2689 128.754 58.6097 131.87 58.6097C134.986 58.6097 137.767 57.2689 139.586 55.1718C141.404 57.2689 144.185 58.6097 147.301 58.6097C150.418 58.6097 153.199 57.2687 155.017 55.1713C156.836 57.2687 159.617 58.6097 162.733 58.6097C165.85 58.6097 168.631 57.2687 170.449 55.1713C170.624 55.3729 170.808 55.5676 171 55.7547V57.7629V58.4974C170.808 58.3103 170.624 58.1156 170.449 57.914C168.631 60.0114 165.85 61.3524 162.733 61.3524C159.617 61.3524 156.836 60.0114 155.017 57.914C153.199 60.0114 150.418 61.3524 147.301 61.3524C144.185 61.3524 141.404 60.0116 139.586 57.9145C137.767 60.0116 134.986 61.3524 131.87 61.3524C128.754 61.3524 125.973 60.0116 124.154 57.9145C122.336 60.0116 119.555 61.3524 116.439 61.3524C113.322 61.3524 110.541 60.0111 108.722 57.9134C106.904 60.0111 104.122 61.3524 101.006 61.3524C97.89 61.3524 95.1098 60.0121 93.2911 57.9156C91.4724 60.0121 88.6922 61.3524 85.5765 61.3524C82.4594 61.3524 79.6781 60.0109 77.8594 57.9128C76.0408 60.0109 73.2595 61.3524 70.1424 61.3524C67.0261 61.3524 64.2455 60.0116 62.4268 57.9145C60.6081 60.0116 57.8275 61.3524 54.7112 61.3524C51.5952 61.3524 48.8148 60.0119 46.9961 57.9151C45.1774 60.0119 42.397 61.3524 39.281 61.3524C36.1645 61.3524 33.3836 60.0114 31.565 57.914C29.7463 60.0114 26.9654 61.3524 23.8489 61.3524C20.7324 61.3524 17.9515 60.0114 16.1328 57.914C14.3141 60.0114 11.5333 61.3524 8.41675 61.3524C5.30039 61.3524 2.51966 60.0115 0.700975 57.9143C0.525855 58.1162 0.341815 58.3112 0.149414 58.4986V57.7651V55.7564C0.341891 55.5689 0.526001 55.3739 0.701183 55.1719C2.51987 57.269 5.30051 58.6097 8.41675 58.6097Z" fill="white"/>
<path fill-rule="evenodd" clip-rule="evenodd" d="M8.41675 64.7809C11.5333 64.7809 14.3141 63.4398 16.1328 61.3424C17.9515 63.4398 20.7324 64.7809 23.8489 64.7809C26.9654 64.7809 29.7463 63.4398 31.565 61.3424C33.3836 63.4398 36.1645 64.7809 39.281 64.7809C42.397 64.7809 45.1774 63.4403 46.9961 61.3436C48.8148 63.4403 51.5952 64.7809 54.7112 64.7809C57.8275 64.7809 60.6081 63.4401 62.4268 61.343C64.2455 63.4401 67.0261 64.7809 70.1424 64.7809C73.2595 64.7809 76.0408 63.4394 77.8594 61.3413C79.6781 63.4394 82.4594 64.7809 85.5765 64.7809C88.6922 64.7809 91.4724 63.4406 93.2911 61.3441C95.1098 63.4406 97.89 64.7809 101.006 64.7809C104.122 64.7809 106.904 63.4396 108.722 61.3419C110.541 63.4396 113.322 64.7809 116.439 64.7809C119.555 64.7809 122.336 63.4401 124.154 61.343C125.973 63.4401 128.754 64.7809 131.87 64.7809C134.986 64.7809 137.767 63.4401 139.586 61.343C141.404 63.4401 144.185 64.7809 147.301 64.7809C150.418 64.7809 153.199 63.4398 155.017 61.3424C156.836 63.4398 159.617 64.7809 162.733 64.7809C165.85 64.7809 168.631 63.4398 170.449 61.3424C170.624 61.5441 170.808 61.7387 171 61.9259V96.9999H0.149414V61.927C0.341816 61.7396 0.525856 61.5447 0.700977 61.3428C2.51966 63.44 5.3004 64.7809 8.41675 64.7809Z" fill="white"/>
<path fill-rule="evenodd" clip-rule="evenodd" d="M26.46 26.7144V37.9118C31.6238 32.4909 38.9015 29.1143 46.9651 29.1143C61.4043 29.1143 73.3232 39.9412 75.0982 53.9454C76.1584 53.374 77.0947 52.6248 77.8604 51.7415C79.679 53.8395 82.4603 55.181 85.5774 55.181C88.6931 55.181 91.4733 53.8407 93.292 51.7443C94.0582 52.6274 94.9949 53.3763 96.0555 53.9474C97.8296 39.9422 109.749 29.1143 124.189 29.1143C131.343 29.1143 137.879 31.7725 142.869 36.1583L136.146 26.7144H115.986L100.951 36.3144H75.6649L59.2633 26.7144H26.46Z" fill="white"/>
<path d="M26.46 37.9118H25.96V39.1616L26.822 38.2566L26.46 37.9118ZM26.46 26.7144V26.2144H25.96V26.7144H26.46ZM75.0982 53.9454L74.6022 54.0083L74.6938 54.7314L75.3355 54.3856L75.0982 53.9454ZM77.8604 51.7415L78.2382 51.414L77.8604 50.9781L77.4826 51.414L77.8604 51.7415ZM93.292 51.7443L93.6697 51.4166L93.292 50.9812L92.9143 51.4166L93.292 51.7443ZM96.0555 53.9474L95.8184 54.3877L96.46 54.7331L96.5515 54.0103L96.0555 53.9474ZM142.869 36.1583L142.539 36.5339L143.276 35.8684L142.869 36.1583ZM136.146 26.7144L136.553 26.4244L136.404 26.2144H136.146V26.7144ZM115.986 26.7144V26.2144H115.84L115.717 26.2929L115.986 26.7144ZM100.951 36.3144V36.8144H101.097L101.22 36.7358L100.951 36.3144ZM75.6649 36.3144L75.4124 36.7459L75.5294 36.8144H75.6649V36.3144ZM59.2633 26.7144L59.5158 26.2828L59.3988 26.2144H59.2633V26.7144ZM26.96 37.9118V26.7144H25.96V37.9118H26.96ZM46.9651 28.6143C38.7588 28.6143 31.352 32.0513 26.0979 37.5669L26.822 38.2566C31.8956 32.9305 39.0441 29.6143 46.9651 29.6143V28.6143ZM75.5942 53.8826C73.7882 39.6329 61.6606 28.6143 46.9651 28.6143V29.6143C61.148 29.6143 72.8583 40.2494 74.6022 54.0083L75.5942 53.8826ZM75.3355 54.3856C76.4479 53.7859 77.4321 52.9989 78.2382 52.069L77.4826 51.414C76.7573 52.2507 75.8689 52.962 74.861 53.5053L75.3355 54.3856ZM77.4826 52.069C79.3966 54.2771 82.316 55.681 85.5774 55.681V54.681C82.6046 54.681 79.9614 53.4019 78.2382 51.414L77.4826 52.069ZM85.5774 55.681C88.8373 55.681 91.7556 54.2784 93.6697 52.0719L92.9143 51.4166C91.1911 53.4031 88.5489 54.681 85.5774 54.681V55.681ZM92.9143 52.0719C93.7209 53.0016 94.7056 53.7884 95.8184 54.3877L96.2926 53.5072C95.2843 52.9643 94.3954 52.2532 93.6697 51.4166L92.9143 52.0719ZM124.189 28.6143C109.493 28.6143 97.3646 39.634 95.5595 53.8846L96.5515 54.0103C98.2945 40.2504 110.005 29.6143 124.189 29.6143V28.6143ZM143.199 35.7828C138.122 31.3199 131.47 28.6143 124.189 28.6143V29.6143C131.217 29.6143 137.637 32.225 142.539 36.5339L143.199 35.7828ZM135.739 27.0043L142.462 36.4483L143.276 35.8684L136.553 26.4244L135.739 27.0043ZM115.986 27.2144H136.146V26.2144H115.986V27.2144ZM101.22 36.7358L116.255 27.1358L115.717 26.2929L100.682 35.893L101.22 36.7358ZM75.6649 36.8144H100.951V35.8144H75.6649V36.8144ZM59.0107 27.1459L75.4124 36.7459L75.9175 35.8829L59.5158 26.2828L59.0107 27.1459ZM26.46 27.2144H59.2633V26.2144H26.46V27.2144Z" fill="white"/>
<path fill-rule="evenodd" clip-rule="evenodd" d="M20.8018 54.7356C21.4034 54.9168 22.0301 55.0459 22.6758 55.1171C23.903 42.7433 34.3087 33.0801 46.9637 33.0801C59.6214 33.0801 70.0287 42.7472 71.2524 55.1246C71.8976 55.0578 72.5241 54.9333 73.1259 54.7567C71.7254 41.4999 60.5461 31.1716 46.9627 31.1716C33.3865 31.1716 22.2118 41.4889 20.8018 54.7356ZM57.6994 54.7556C56.4565 49.9706 52.1205 46.4387 46.9623 46.4387C41.8116 46.4387 37.4807 49.9604 36.2307 54.7349C37.1924 55.0249 38.2184 55.1816 39.2837 55.1816C42.4002 55.1816 45.181 53.8405 46.9997 51.7431C48.8184 53.8405 51.5993 55.1816 54.7158 55.1816C55.7554 55.1816 56.7577 55.0323 57.6994 54.7556Z" fill="white"/>
<path fill-rule="evenodd" clip-rule="evenodd" d="M98.0264 54.7558C98.6279 54.9325 99.2541 55.0572 99.8989 55.1242C101.123 42.7469 111.53 33.0798 124.188 33.0798C136.843 33.0798 147.249 42.7435 148.476 55.1177C149.122 55.0468 149.749 54.9179 150.351 54.7369C148.941 41.4895 137.766 31.1714 124.189 31.1714C110.606 31.1714 99.4271 41.4993 98.0264 54.7558ZM134.919 54.7366C133.67 49.9613 129.339 46.439 124.187 46.439C119.03 46.439 114.694 49.9699 113.451 54.7539C114.394 55.0317 115.398 55.1815 116.44 55.1815C119.557 55.1815 122.337 53.8405 124.156 51.7431C125.975 53.8405 128.756 55.1815 131.872 55.1815C132.935 55.1815 133.959 55.0255 134.919 54.7366Z" fill="white"/>
</svg>
