<svg width="171" height="112" viewBox="0 0 171 112" fill="none" xmlns="http://www.w3.org/2000/svg">
<rect y="111" width="171" height="1" fill="white"/>
<path d="M3.0778 98.4743L0.341797 97.4483L0.683797 94.3703L3.0778 93.6863L5.8138 94.3703L3.0778 98.4743Z" fill="white"/>
<path d="M19.8353 96.0801L14.7053 93.6861L14.3633 91.9761L15.7313 90.9501H18.8093L21.8873 89.9241L24.6233 91.2921L26.3333 93.6861L25.6493 96.7641L19.8353 96.0801Z" fill="white"/>
<path d="M31.8056 99.1581L27.0176 97.1061L27.7016 94.0281L30.7796 91.9761L35.5676 94.0281L36.5936 95.3961L31.8056 99.1581Z" fill="white"/>
<path d="M100.89 96.7639L95.0762 94.0279L98.1542 87.8719L103.968 89.5819L107.046 93.3439L107.388 95.7379L100.89 96.7639Z" fill="white"/>
<path d="M161.082 94.0279L153.9 91.9759L152.532 89.2399L155.61 87.1879L160.74 86.8459L164.844 84.1099L171 86.1619V91.9759L161.082 94.0279Z" fill="white"/>
<path d="M11.2851 101.894L4.78711 99.1582L7.86511 94.7122L13.3371 95.0542L18.8091 97.1062V99.1582L11.2851 101.894Z" fill="white"/>
<path d="M108.071 14H30.7795L27.1641 39.308H60.1915L75.9235 48.884H101.915L116.964 39.308H136.457L130.644 25.97V21.182L108.071 14Z" stroke="white" stroke-width="2"/>
<path d="M116.281 35.2041L110.809 20.8401L129.619 26.6541L134.749 38.6241H131.329L116.281 35.2041Z" fill="white" stroke="white" stroke-width="2"/>
<path fill-rule="evenodd" clip-rule="evenodd" d="M150.479 70.4298C150.479 84.5959 138.995 96.0798 124.828 96.0798C110.662 96.0798 99.1785 84.5959 99.1785 70.4298C99.1785 56.2637 110.662 44.7798 124.828 44.7798C138.995 44.7798 150.479 56.2637 150.479 70.4298ZM148.626 70.4298C148.626 83.5718 137.972 94.2255 124.83 94.2255C111.688 94.2255 101.035 83.5718 101.035 70.4298C101.035 57.2877 111.688 46.634 124.83 46.634C137.972 46.634 148.626 57.2877 148.626 70.4298ZM75.924 70.4305C75.924 84.5966 64.4401 96.0805 50.274 96.0805C36.1079 96.0805 24.624 84.5966 24.624 70.4305C24.624 56.2644 36.1079 44.7805 50.274 44.7805C64.4401 44.7805 75.924 56.2644 75.924 70.4305ZM74.0688 70.4298C74.0688 83.5718 63.4151 94.2256 50.273 94.2256C37.131 94.2256 26.4772 83.5718 26.4772 70.4298C26.4772 57.2877 37.131 46.634 50.273 46.634C63.4151 46.634 74.0688 57.2877 74.0688 70.4298ZM50.2738 58.9293C56.2474 58.9293 61.09 63.7719 61.09 69.7456C61.09 75.7193 56.2474 80.5619 50.2738 80.5619C44.3001 80.5619 39.4575 75.7193 39.4575 69.7456C39.4575 63.7719 44.3001 58.9293 50.2738 58.9293ZM50.2741 73.1449C52.1515 73.1449 53.6735 71.623 53.6735 69.7455C53.6735 67.8681 52.1515 66.3461 50.2741 66.3461C48.3966 66.3461 46.8747 67.8681 46.8747 69.7455C46.8747 71.623 48.3966 73.1449 50.2741 73.1449ZM135.645 70.4302C135.645 64.4565 130.803 59.6139 124.829 59.6139C118.856 59.6139 114.013 64.4565 114.013 70.4302C114.013 76.4039 118.856 81.2465 124.829 81.2465C130.803 81.2465 135.645 76.4039 135.645 70.4302ZM128.229 70.4299C128.229 72.3073 126.707 73.8293 124.829 73.8293C122.952 73.8293 121.43 72.3073 121.43 70.4299C121.43 68.5525 122.952 67.0305 124.829 67.0305C126.707 67.0305 128.229 68.5525 128.229 70.4299Z" fill="white"/>
<path fill-rule="evenodd" clip-rule="evenodd" d="M27.0176 54.15V39.6499H59.8496L76.2656 49.2259H101.574L116.622 39.6499H136.8L143.533 49.0765C138.538 44.698 131.994 42.044 124.83 42.044C109.152 42.044 96.4436 54.7529 96.4436 70.43C96.4436 70.8886 96.4545 71.3446 96.476 71.7979H78.6277C78.6492 71.3446 78.66 70.8886 78.66 70.43C78.66 54.7529 65.9512 42.044 50.2741 42.044C40.6539 42.044 32.1515 46.8296 27.0176 54.15Z" fill="white"/>
<path d="M27.0176 39.6499V39.1499H26.5176V39.6499H27.0176ZM27.0176 54.15H26.5176V55.7338L27.4269 54.4371L27.0176 54.15ZM59.8496 39.6499L60.1015 39.218L59.9848 39.1499H59.8496V39.6499ZM76.2656 49.2259L76.0136 49.6578L76.1304 49.7259H76.2656V49.2259ZM101.574 49.2259V49.7259H101.719L101.842 49.6477L101.574 49.2259ZM116.622 39.6499V39.1499H116.476L116.353 39.2281L116.622 39.6499ZM136.8 39.6499L137.206 39.3593L137.057 39.1499H136.8V39.6499ZM143.533 49.0765L143.203 49.4525L143.94 48.7858L143.533 49.0765ZM96.476 71.7979V72.2979H97.0003L96.9754 71.7742L96.476 71.7979ZM78.6277 71.7979L78.1282 71.7742L78.1034 72.2979H78.6277V71.7979ZM26.5176 39.6499V54.15H27.5176V39.6499H26.5176ZM59.8496 39.1499H27.0176V40.1499H59.8496V39.1499ZM76.5175 48.794L60.1015 39.218L59.5976 40.0818L76.0136 49.6578L76.5175 48.794ZM101.574 48.7259H76.2656V49.7259H101.574V48.7259ZM116.353 39.2281L101.305 48.8041L101.842 49.6477L116.89 40.0717L116.353 39.2281ZM136.8 39.1499H116.622V40.1499H136.8V39.1499ZM143.94 48.7858L137.206 39.3593L136.393 39.9405L143.126 49.3671L143.94 48.7858ZM124.83 42.544C131.868 42.544 138.296 45.1509 143.203 49.4525L143.862 48.7005C138.78 44.2452 132.12 41.544 124.83 41.544V42.544ZM96.9436 70.43C96.9436 55.029 109.429 42.544 124.83 42.544V41.544C108.876 41.544 95.9436 54.4767 95.9436 70.43H96.9436ZM96.9754 71.7742C96.9543 71.3288 96.9436 70.8807 96.9436 70.43H95.9436C95.9436 70.8965 95.9547 71.3605 95.9765 71.8216L96.9754 71.7742ZM78.6277 72.2979H96.476V71.2979H78.6277V72.2979ZM78.16 70.43C78.16 70.8807 78.1494 71.3288 78.1282 71.7742L79.1271 71.8216C79.149 71.3605 79.16 70.8965 79.16 70.43H78.16ZM50.2741 42.544C65.6751 42.544 78.16 55.029 78.16 70.43H79.16C79.16 54.4767 66.2273 41.544 50.2741 41.544V42.544ZM27.4269 54.4371C32.4713 47.2444 40.8238 42.544 50.2741 42.544V41.544C40.484 41.544 31.8317 46.4148 26.6082 53.8629L27.4269 54.4371Z" fill="white"/>
<path d="M0 98.8163L10.26 104.288L25.992 98.4744L32.148 100.868L37.962 96.4224L59.85 98.8164L74.898 93.0024L93.366 94.7124L100.548 98.8163L108.414 97.4484L133.038 98.4744L145.35 96.0804L150.138 92.3184L161.082 95.7384L171 93.6864V109.076H0V98.8163Z" fill="white"/>
<rect x="134" y="1" width="36" height="36" fill="white" stroke="black" stroke-width="2"/>
<path d="M147.722 17.6152L150.121 13.2031H153.153L149.427 19.5488L153.25 26H150.183L147.722 21.5176L145.261 26H142.193L146.017 19.5488L142.29 13.2031H145.322L147.722 17.6152ZM163.085 26H154.313V24.2598L158.453 19.8477C159.021 19.2266 159.44 18.6846 159.71 18.2217C159.985 17.7588 160.123 17.3193 160.123 16.9033C160.123 16.335 159.979 15.8896 159.692 15.5674C159.405 15.2393 158.995 15.0752 158.462 15.0752C157.888 15.0752 157.434 15.2744 157.1 15.6729C156.771 16.0654 156.607 16.584 156.607 17.2285H154.059C154.059 16.4492 154.243 15.7373 154.612 15.0928C154.987 14.4482 155.515 13.9443 156.194 13.5811C156.874 13.2119 157.645 13.0273 158.506 13.0273C159.824 13.0273 160.847 13.3438 161.573 13.9766C162.306 14.6094 162.672 15.5029 162.672 16.6572C162.672 17.29 162.508 17.9346 162.18 18.5908C161.852 19.2471 161.289 20.0117 160.492 20.8848L157.583 23.9521H163.085V26Z" fill="black"/>
</svg>
