<svg width="171" height="99" viewBox="0 0 171 99" fill="none" xmlns="http://www.w3.org/2000/svg">
<rect y="98" width="171" height="1" fill="white"/>
<path d="M3.0778 85.4743L0.341797 84.4483L0.683797 81.3703L3.0778 80.6863L5.8138 81.3703L3.0778 85.4743Z" fill="white"/>
<path d="M19.8353 83.0801L14.7053 80.6861L14.3633 78.9761L15.7313 77.9501H18.8093L21.8873 76.9241L24.6233 78.2921L26.3333 80.6861L25.6493 83.7641L19.8353 83.0801Z" fill="white"/>
<path d="M31.8056 86.1581L27.0176 84.1061L27.7016 81.0281L30.7796 78.9761L35.5676 81.0281L36.5936 82.3961L31.8056 86.1581Z" fill="white"/>
<path d="M100.89 83.7639L95.0762 81.0279L98.1542 74.8719L103.968 76.5819L107.046 80.3439L107.388 82.7379L100.89 83.7639Z" fill="white"/>
<path d="M161.082 81.0279L153.9 78.9759L152.532 76.2399L155.61 74.1879L160.74 73.8459L164.844 71.1099L171 73.1619V78.9759L161.082 81.0279Z" fill="white"/>
<path d="M11.2851 88.8942L4.78711 86.1582L7.86511 81.7122L13.3371 82.0542L18.8091 84.1062V86.1582L11.2851 88.8942Z" fill="white"/>
<path d="M108.071 1H30.7795L27.1641 26.308H60.1915L75.9235 35.884H101.915L116.964 26.308H136.457L130.644 12.97V8.182L108.071 1Z" stroke="white" stroke-width="2"/>
<path d="M116.281 22.2041L110.809 7.84009L129.619 13.6541L134.749 25.6241H131.329L116.281 22.2041Z" fill="white" stroke="white" stroke-width="2"/>
<path fill-rule="evenodd" clip-rule="evenodd" d="M150.479 57.4298C150.479 71.5959 138.995 83.0798 124.828 83.0798C110.662 83.0798 99.1785 71.5959 99.1785 57.4298C99.1785 43.2637 110.662 31.7798 124.828 31.7798C138.995 31.7798 150.479 43.2637 150.479 57.4298ZM148.626 57.4298C148.626 70.5718 137.972 81.2255 124.83 81.2255C111.688 81.2255 101.035 70.5718 101.035 57.4298C101.035 44.2877 111.688 33.634 124.83 33.634C137.972 33.634 148.626 44.2877 148.626 57.4298ZM75.924 57.4305C75.924 71.5966 64.4401 83.0805 50.274 83.0805C36.1079 83.0805 24.624 71.5966 24.624 57.4305C24.624 43.2644 36.1079 31.7805 50.274 31.7805C64.4401 31.7805 75.924 43.2644 75.924 57.4305ZM74.0688 57.4298C74.0688 70.5718 63.4151 81.2256 50.273 81.2256C37.131 81.2256 26.4772 70.5718 26.4772 57.4298C26.4772 44.2877 37.131 33.634 50.273 33.634C63.4151 33.634 74.0688 44.2877 74.0688 57.4298ZM50.2738 45.9293C56.2474 45.9293 61.09 50.7719 61.09 56.7456C61.09 62.7193 56.2474 67.5619 50.2738 67.5619C44.3001 67.5619 39.4575 62.7193 39.4575 56.7456C39.4575 50.7719 44.3001 45.9293 50.2738 45.9293ZM50.2741 60.1449C52.1515 60.1449 53.6735 58.623 53.6735 56.7455C53.6735 54.8681 52.1515 53.3461 50.2741 53.3461C48.3966 53.3461 46.8747 54.8681 46.8747 56.7455C46.8747 58.623 48.3966 60.1449 50.2741 60.1449ZM135.645 57.4302C135.645 51.4565 130.803 46.6139 124.829 46.6139C118.856 46.6139 114.013 51.4565 114.013 57.4302C114.013 63.4039 118.856 68.2465 124.829 68.2465C130.803 68.2465 135.645 63.4039 135.645 57.4302ZM128.229 57.4299C128.229 59.3073 126.707 60.8293 124.829 60.8293C122.952 60.8293 121.43 59.3073 121.43 57.4299C121.43 55.5525 122.952 54.0305 124.829 54.0305C126.707 54.0305 128.229 55.5525 128.229 57.4299Z" fill="white"/>
<path fill-rule="evenodd" clip-rule="evenodd" d="M27.0176 41.15V26.6499H59.8496L76.2656 36.2259H101.574L116.622 26.6499H136.8L143.533 36.0765C138.538 31.698 131.994 29.044 124.83 29.044C109.152 29.044 96.4436 41.7529 96.4436 57.43C96.4436 57.8886 96.4545 58.3446 96.476 58.7979H78.6277C78.6492 58.3446 78.66 57.8886 78.66 57.43C78.66 41.7529 65.9512 29.044 50.2741 29.044C40.6539 29.044 32.1515 33.8296 27.0176 41.15Z" fill="white"/>
<path d="M27.0176 26.6499V26.1499H26.5176V26.6499H27.0176ZM27.0176 41.15H26.5176V42.7338L27.4269 41.4371L27.0176 41.15ZM59.8496 26.6499L60.1015 26.218L59.9848 26.1499H59.8496V26.6499ZM76.2656 36.2259L76.0136 36.6578L76.1304 36.7259H76.2656V36.2259ZM101.574 36.2259V36.7259H101.719L101.842 36.6477L101.574 36.2259ZM116.622 26.6499V26.1499H116.476L116.353 26.2281L116.622 26.6499ZM136.8 26.6499L137.206 26.3593L137.057 26.1499H136.8V26.6499ZM143.533 36.0765L143.203 36.4525L143.94 35.7858L143.533 36.0765ZM96.476 58.7979V59.2979H97.0003L96.9754 58.7742L96.476 58.7979ZM78.6277 58.7979L78.1282 58.7742L78.1034 59.2979H78.6277V58.7979ZM26.5176 26.6499V41.15H27.5176V26.6499H26.5176ZM59.8496 26.1499H27.0176V27.1499H59.8496V26.1499ZM76.5175 35.794L60.1015 26.218L59.5976 27.0818L76.0136 36.6578L76.5175 35.794ZM101.574 35.7259H76.2656V36.7259H101.574V35.7259ZM116.353 26.2281L101.305 35.8041L101.842 36.6477L116.89 27.0717L116.353 26.2281ZM136.8 26.1499H116.622V27.1499H136.8V26.1499ZM143.94 35.7858L137.206 26.3593L136.393 26.9405L143.126 36.3671L143.94 35.7858ZM124.83 29.544C131.868 29.544 138.296 32.1509 143.203 36.4525L143.862 35.7005C138.78 31.2452 132.12 28.544 124.83 28.544V29.544ZM96.9436 57.43C96.9436 42.029 109.429 29.544 124.83 29.544V28.544C108.876 28.544 95.9436 41.4767 95.9436 57.43H96.9436ZM96.9754 58.7742C96.9543 58.3288 96.9436 57.8807 96.9436 57.43H95.9436C95.9436 57.8965 95.9547 58.3605 95.9765 58.8216L96.9754 58.7742ZM78.6277 59.2979H96.476V58.2979H78.6277V59.2979ZM78.16 57.43C78.16 57.8807 78.1494 58.3288 78.1282 58.7742L79.1271 58.8216C79.149 58.3605 79.16 57.8965 79.16 57.43H78.16ZM50.2741 29.544C65.6751 29.544 78.16 42.029 78.16 57.43H79.16C79.16 41.4767 66.2273 28.544 50.2741 28.544V29.544ZM27.4269 41.4371C32.4713 34.2444 40.8238 29.544 50.2741 29.544V28.544C40.484 28.544 31.8317 33.4148 26.6082 40.8629L27.4269 41.4371Z" fill="white"/>
<path d="M0 85.8163L10.26 91.2884L25.992 85.4744L32.148 87.8684L37.962 83.4224L59.85 85.8164L74.898 80.0024L93.366 81.7124L100.548 85.8163L108.414 84.4484L133.038 85.4744L145.35 83.0804L150.138 79.3184L161.082 82.7384L171 80.6864V96.0764H0V85.8163Z" fill="white"/>
</svg>
