<svg width="173" height="97" viewBox="0 0 173 97" fill="none" xmlns="http://www.w3.org/2000/svg">
<path d="M169.028 88.2132C169.028 87.8108 169.028 87.4463 169.028 87.059C168.414 87.059 167.822 87.059 167.178 87.059C167.155 86.8312 167.124 86.6262 167.117 86.4212C167.026 83.5585 167.64 80.8173 168.52 78.1292C169.423 75.3729 170.636 72.7456 172.025 70.2018C172.336 69.6323 172.336 69.3589 172.055 69.1007C171.774 68.8502 171.478 68.8881 170.97 69.2754C167.966 71.5306 165.751 74.4313 164.174 77.8255C164.121 77.9394 164.068 78.0457 164.014 78.1596C163.977 78.152 163.939 78.1444 163.901 78.1444C164.159 74.5528 164.409 70.9611 164.667 67.377C164.993 67.3315 165.243 67.3163 165.486 67.2556C166.358 67.0429 167.049 66.2608 167.124 65.38C167.329 62.897 167.519 60.4139 167.708 57.9233C167.792 56.8223 167.079 55.9718 165.782 55.5997C165.865 54.567 165.941 53.5267 166.025 52.4257C165.63 52.3953 165.266 52.365 164.849 52.327C164.758 53.3901 164.674 54.4304 164.583 55.4858C164.348 55.5086 164.136 55.5238 163.931 55.5618C163.021 55.7288 162.27 56.5489 162.194 57.4829C161.989 59.9507 161.8 62.4262 161.618 64.9016C161.534 66.0178 162.217 66.8531 163.446 67.2176C163.157 71.7736 162.877 76.322 162.588 80.8249C162.513 80.0656 162.422 79.2531 162.353 78.4482C162.095 75.5703 161.906 72.6924 161.966 69.8069C161.974 69.4045 161.762 69.1235 161.435 69.0856C161.064 69.04 160.813 69.245 160.722 69.5791C160.389 70.7865 160.009 71.9786 159.789 73.2087C159.107 76.9978 159.084 80.8325 159.205 84.6747C159.228 85.4568 159.205 86.239 159.205 87.0439C159.183 87.0439 159.076 87.0439 158.955 87.0439C158.561 79.4353 157.279 71.971 155.618 64.5371C155.716 64.4764 155.822 64.4156 155.929 64.3473C156.687 63.8689 157.104 62.9653 156.93 62.0921C156.452 59.7229 155.974 57.3614 155.481 54.9999C155.2 53.6482 154.275 52.9876 152.902 53.1243C152.856 53.1319 152.803 53.1243 152.712 53.1243C152.561 52.365 152.417 51.6056 152.257 50.8159C151.87 50.8919 151.514 50.9526 151.104 51.0361C151.248 51.8258 151.393 52.6004 151.537 53.3901C151.37 53.4812 151.21 53.5495 151.059 53.6406C150.27 54.119 149.86 55.0378 150.042 55.9566C150.52 58.3106 150.99 60.6645 151.484 63.0109C151.779 64.4156 152.811 65.0914 154.222 64.8409C154.283 64.8333 154.343 64.8257 154.457 64.8181C155.382 68.8426 156.141 72.8898 156.695 76.9902C156.459 76.2917 156.224 75.5855 155.982 74.8869C154.738 71.3712 153.228 67.9845 151.059 64.932C150.042 63.5044 148.897 62.1908 147.524 61.0973C147.357 60.9682 147.122 60.8543 146.917 60.8619C146.439 60.8771 146.25 61.3707 146.5 61.8719C147.046 62.9653 147.615 64.0512 148.138 65.1598C150.52 70.1942 152.568 75.3577 153.805 80.8021C154.229 82.6549 154.449 84.5608 154.76 86.444C154.791 86.6338 154.768 86.8388 154.768 87.0666C154.1 87.0666 153.448 87.0666 152.758 87.0666C152.758 87.4615 152.758 87.8336 152.758 88.236C158.151 88.2132 163.575 88.2132 169.028 88.2132ZM164.705 66.1165C164.47 66.0938 164.227 66.071 163.992 66.0482C163.044 65.9647 162.74 65.5774 162.824 64.6358C162.93 63.4437 163.013 62.2439 163.104 61.0442C163.188 59.9204 163.264 58.8041 163.37 57.6803C163.43 57.0425 163.855 56.678 164.447 56.7008C164.811 56.716 165.175 56.7387 165.539 56.7843C166.191 56.8678 166.548 57.2931 166.502 57.9613C166.328 60.3152 166.146 62.6692 165.956 65.0231C165.888 65.828 165.501 66.1469 164.705 66.1165ZM151.173 55.6377C151.165 55.015 151.476 54.6278 152.007 54.5063C152.326 54.4304 152.652 54.3772 152.97 54.3165C153.676 54.1722 154.154 54.4911 154.298 55.1973C154.495 56.1465 154.692 57.1032 154.882 58.0524C155.162 59.4116 155.443 60.7708 155.716 62.1376C155.86 62.8438 155.557 63.307 154.844 63.4741C154.563 63.5348 154.275 63.5955 153.994 63.6563C153.243 63.8082 152.781 63.4968 152.621 62.7375C152.303 61.1809 151.977 59.6242 151.658 58.06C151.491 57.2247 151.324 56.3819 151.173 55.6377ZM155.997 87.0363C155.299 79.0708 152.477 71.7812 149.178 64.5599C149.276 64.6207 149.307 64.6358 149.329 64.6662C149.42 64.7725 149.504 64.8788 149.587 64.9927C151.074 66.9442 152.25 69.078 153.243 71.3104C155.223 75.7525 156.543 80.3921 157.476 85.1531C157.597 85.7682 157.673 86.3832 157.772 87.0363C157.127 87.0363 156.573 87.0363 155.997 87.0363ZM169.764 71.9482C169.711 72.0621 169.658 72.176 169.612 72.2899C169.013 73.6795 168.376 75.0615 167.837 76.4739C166.844 79.0784 166.131 81.7665 165.949 84.5684C165.896 85.3809 165.941 86.201 165.941 87.0287C165.274 87.0287 164.621 87.0287 163.969 87.0287C163.954 86.9527 163.939 86.8996 163.939 86.854C163.908 85.3961 163.878 83.9458 163.855 82.4878C163.855 82.4043 163.863 82.3132 163.886 82.2297C164.386 80.3161 165.076 78.4785 166.04 76.7397C167.041 74.9476 168.262 73.3302 169.764 71.9482ZM160.76 74.568C161.2 78.7139 161.648 82.8675 162.088 87.0363C161.602 87.0363 161.064 87.0363 160.495 87.0363C160.267 82.8523 160.222 78.6987 160.76 74.568Z" fill="white"/>
<rect x="142" y="43" width="17" height="46" fill="black"/>
<path d="M108.366 1H30.8636L27.2383 26.364H60.3557L76.1305 35.9612H102.193L117.282 26.364H136.829L131 12.9965V8.1979L108.366 1Z" stroke="white" stroke-width="2"/>
<path d="M116.596 22.2513L111.109 7.85547L129.971 13.6823L135.115 25.6788H131.685L116.596 22.2513Z" fill="white" stroke="white" stroke-width="2"/>
<path fill-rule="evenodd" clip-rule="evenodd" d="M150.89 57.5549C150.89 71.7524 139.375 83.2617 125.17 83.2617C110.965 83.2617 99.45 71.7524 99.45 57.5549C99.45 43.3575 110.965 31.8481 125.17 31.8481C139.375 31.8481 150.89 43.3575 150.89 57.5549ZM149.029 57.5545C149.029 70.7257 138.347 81.403 125.169 81.403C111.991 81.403 101.308 70.7257 101.308 57.5545C101.308 44.3834 111.991 33.7061 125.169 33.7061C138.347 33.7061 149.029 44.3834 149.029 57.5545ZM76.1311 57.5555C76.1311 71.7529 64.616 83.2622 50.4113 83.2622C36.2066 83.2622 24.6914 71.7529 24.6914 57.5555C24.6914 43.358 36.2066 31.8487 50.4113 31.8487C64.616 31.8487 76.1311 43.358 76.1311 57.5555ZM74.2708 57.5546C74.2708 70.7257 63.5881 81.403 50.4102 81.403C37.2324 81.403 26.5496 70.7257 26.5496 57.5546C26.5496 44.3834 37.2324 33.7061 50.4102 33.7061C63.5881 33.7061 74.2708 44.3834 74.2708 57.5546ZM50.4108 46.0283C56.4007 46.0283 61.2565 50.8816 61.2565 56.8685C61.2565 62.8554 56.4007 67.7087 50.4108 67.7087C44.4208 67.7087 39.565 62.8554 39.565 56.8685C39.565 50.8816 44.4208 46.0283 50.4108 46.0283ZM50.4098 60.2755C52.2923 60.2755 53.8184 58.7502 53.8184 56.8686C53.8184 54.987 52.2923 53.4617 50.4098 53.4617C48.5272 53.4617 47.0011 54.987 47.0011 56.8686C47.0011 58.7502 48.5272 60.2755 50.4098 60.2755ZM136.014 57.5553C136.014 51.5684 131.158 46.7151 125.169 46.7151C119.179 46.7151 114.323 51.5684 114.323 57.5553C114.323 63.5422 119.179 68.3955 125.169 68.3955C131.158 68.3955 136.014 63.5422 136.014 57.5553ZM128.576 57.5551C128.576 59.4367 127.05 60.962 125.167 60.962C123.285 60.962 121.759 59.4367 121.759 57.5551C121.759 55.6735 123.285 54.1482 125.167 54.1482C127.05 54.1482 128.576 55.6735 128.576 57.5551Z" fill="white"/>
<path fill-rule="evenodd" clip-rule="evenodd" d="M27.0918 41.2379V26.7068H60.0132L76.474 36.304H101.851L116.94 26.7068H137.173L143.925 36.1547C138.916 31.7661 132.354 29.106 125.17 29.106C109.45 29.106 96.7064 41.8429 96.7064 57.5548C96.7064 58.0145 96.7173 58.4716 96.7389 58.926H78.8419C78.8634 58.4716 78.8743 58.0145 78.8743 57.5548C78.8743 41.8429 66.1309 29.106 50.411 29.106C40.7651 29.106 32.2398 33.9017 27.0918 41.2379Z" fill="white"/>
<path d="M27.0918 26.7068V26.2068H26.5918V26.7068H27.0918ZM27.0918 41.2379H26.5918V42.8208L27.5011 41.5251L27.0918 41.2379ZM60.0132 26.7068L60.2651 26.2748L60.1483 26.2068H60.0132V26.7068ZM76.474 36.304L76.2221 36.7359L76.3388 36.804H76.474V36.304ZM101.851 36.304V36.804H101.996L102.119 36.7259L101.851 36.304ZM116.94 26.7068V26.2068H116.794L116.672 26.2849L116.94 26.7068ZM137.173 26.7068L137.58 26.4161L137.43 26.2068H137.173V26.7068ZM143.925 36.1547L143.595 36.5308L144.332 35.864L143.925 36.1547ZM96.7389 58.926V59.426H97.2632L97.2383 58.9023L96.7389 58.926ZM78.8419 58.926L78.3424 58.9023L78.3176 59.426H78.8419V58.926ZM26.5918 26.7068V41.2379H27.5918V26.7068H26.5918ZM60.0132 26.2068H27.0918V27.2068H60.0132V26.2068ZM76.7258 35.872L60.2651 26.2748L59.7614 27.1387L76.2221 36.7359L76.7258 35.872ZM101.851 35.804H76.474V36.804H101.851V35.804ZM116.672 26.2849L101.583 35.8821L102.119 36.7259L117.208 27.1287L116.672 26.2849ZM137.173 26.2068H116.94V27.2068H137.173V26.2068ZM144.332 35.864L137.58 26.4161L136.766 26.9975L143.518 36.4454L144.332 35.864ZM125.17 29.606C132.228 29.606 138.674 32.219 143.595 36.5308L144.254 35.7787C139.158 31.3132 132.48 28.606 125.17 28.606V29.606ZM97.2064 57.5548C97.2064 42.1193 109.726 29.606 125.17 29.606V28.606C109.174 28.606 96.2064 41.5666 96.2064 57.5548H97.2064ZM97.2383 58.9023C97.2171 58.4558 97.2064 58.0066 97.2064 57.5548H96.2064C96.2064 58.0224 96.2175 58.4874 96.2394 58.9497L97.2383 58.9023ZM78.8419 59.426H96.7389V58.426H78.8419V59.426ZM78.3743 57.5548C78.3743 58.0066 78.3636 58.4558 78.3424 58.9023L79.3413 58.9497C79.3632 58.4874 79.3743 58.0224 79.3743 57.5548H78.3743ZM50.411 29.606C65.855 29.606 78.3743 42.1193 78.3743 57.5548H79.3743C79.3743 41.5666 66.4068 28.606 50.411 28.606V29.606ZM27.5011 41.5251C32.5594 34.3167 40.9348 29.606 50.411 29.606V28.606C40.5953 28.606 31.9201 33.4868 26.6825 40.9507L27.5011 41.5251Z" fill="white"/>
<path d="M0 86.0038C7.5445 78.4632 13.7173 84.6329 22.2906 85.3184C30.8638 86.0038 33.9502 83.2618 40.8089 83.6046C47.6675 83.9473 53.4973 85.6611 59.6701 84.9756C65.8429 84.2901 68.5863 81.2053 76.1308 80.5198C83.6753 79.8343 86.0758 80.5198 89.8481 82.2336C93.6203 83.9473 97.0497 85.6611 100.822 86.0038C104.594 86.3465 109.738 84.9756 114.196 83.9473C118.654 82.9191 125.856 85.3184 133.4 85.6611C140.945 86.0039 143.688 84.6329 143.688 84.6329C143.688 84.6329 147.461 82.9191 151.576 81.8909C155.691 80.8627 157.406 82.5764 161.521 82.9191C165.636 83.2618 171.466 80.8625 171.466 80.8625V96.9722H0L0 86.0038Z" fill="white"/>
<path d="M2.69748 89.3866C2.69748 89.0718 2.69748 88.7868 2.69748 88.4839C3.21006 88.4839 3.70365 88.4839 4.24154 88.4839C4.26052 88.3057 4.28583 88.1454 4.29216 87.985C4.3681 85.746 3.85552 83.602 3.12146 81.4997C2.36842 79.3438 1.35592 77.2889 0.197875 75.2994C-0.0615775 74.854 -0.0615771 74.6402 0.172563 74.4382C0.406703 74.2422 0.6535 74.2719 1.07748 74.5748C3.58342 76.3387 5.43122 78.6074 6.74747 81.2621C6.79177 81.3512 6.83606 81.4343 6.88036 81.5234C6.912 81.5175 6.94364 81.5115 6.97528 81.5115C6.76013 78.7024 6.5513 75.8933 6.33614 73.0901C6.06403 73.0545 5.85521 73.0426 5.65271 72.9951C4.92497 72.8288 4.34912 72.2171 4.28583 71.5281C4.11498 69.5861 3.95677 67.6441 3.79857 65.6961C3.72896 64.8349 4.3238 64.1698 5.40591 63.8788C5.3363 63.0711 5.27302 62.2574 5.20341 61.3963C5.53247 61.3725 5.83622 61.3488 6.18427 61.3191C6.2602 62.1505 6.32981 62.9642 6.40575 63.7897C6.60192 63.8075 6.77911 63.8194 6.94997 63.8491C7.70934 63.9797 8.33582 64.6211 8.39911 65.3516C8.56996 67.2818 8.72817 69.2179 8.88004 71.154C8.94965 72.027 8.38012 72.6803 7.35497 72.9654C7.59544 76.5287 7.82958 80.0862 8.07005 83.608C8.13333 83.0141 8.20926 82.3786 8.26622 81.7491C8.48137 79.4982 8.63957 77.2474 8.58895 74.9906C8.58262 74.6758 8.75981 74.456 9.03192 74.4264C9.34199 74.3907 9.55082 74.5511 9.62676 74.8124C9.9052 75.7567 10.2216 76.6891 10.4051 77.6512C10.9746 80.6147 10.9936 83.6139 10.8924 86.619C10.8734 87.2308 10.8924 87.8425 10.8924 88.472C10.9114 88.472 11 88.472 11.1012 88.472C11.4303 82.5212 12.4997 76.6832 13.8856 70.8689C13.8033 70.8214 13.7147 70.7739 13.6261 70.7204C12.9933 70.3463 12.6453 69.6395 12.7908 68.9566C13.1895 67.1036 13.5882 65.2566 13.9995 63.4096C14.2336 62.3524 15.0057 61.8358 16.151 61.9427C16.189 61.9486 16.2333 61.9427 16.3092 61.9427C16.4358 61.3488 16.556 60.7549 16.6889 60.1372C17.0117 60.1966 17.3091 60.2441 17.6508 60.3094C17.5306 60.9271 17.4103 61.5329 17.2901 62.1505C17.4293 62.2218 17.5622 62.2752 17.6888 62.3465C18.3469 62.7207 18.6886 63.4393 18.5367 64.1579C18.1381 65.999 17.7457 67.84 17.3344 69.6752C17.0876 70.7739 16.227 71.3025 15.0499 71.1065C14.9993 71.1005 14.9487 71.0946 14.8538 71.0887C14.0817 74.2363 13.4489 77.4018 12.987 80.6088C13.1832 80.0624 13.3793 79.5101 13.5818 78.9637C14.6196 76.214 15.8789 73.5652 17.6888 71.1777C18.5367 70.0612 19.4923 69.0338 20.6377 68.1786C20.7769 68.0776 20.9731 67.9885 21.1439 67.9945C21.5426 68.0063 21.7008 68.3924 21.492 68.7843C21.0363 69.6395 20.5617 70.4888 20.1251 71.3559C18.1381 75.2934 16.4295 79.3319 15.398 83.5902C15.0436 85.0393 14.8601 86.53 14.6007 88.0028C14.5753 88.1513 14.5943 88.3116 14.5943 88.4898C15.1512 88.4898 15.6954 88.4898 16.2713 88.4898C16.2713 88.7986 16.2713 89.0897 16.2713 89.4044C11.772 89.3866 7.24739 89.3866 2.69748 89.3866ZM6.3045 72.1042C6.50067 72.0864 6.70317 72.0686 6.89934 72.0508C7.69036 71.9854 7.94348 71.6826 7.87387 70.9461C7.78528 70.0137 7.71567 69.0753 7.63973 68.137C7.57012 67.258 7.50684 66.385 7.41825 65.506C7.36762 65.0072 7.01325 64.7221 6.51966 64.7399C6.21591 64.7518 5.91216 64.7696 5.60841 64.8052C5.06419 64.8706 4.76677 65.2031 4.80474 65.7258C4.95029 67.5668 5.10216 69.4079 5.26036 71.249C5.31732 71.8785 5.64005 72.128 6.3045 72.1042ZM17.5938 63.9084C17.6002 63.4215 17.3407 63.1186 16.8978 63.0235C16.632 62.9642 16.3599 62.9226 16.0941 62.8751C15.5056 62.7622 15.1069 63.0117 14.9867 63.564C14.8221 64.3064 14.6576 65.0547 14.4994 65.797C14.2653 66.8601 14.0311 67.9232 13.8033 68.9922C13.6831 69.5445 13.9362 69.9068 14.531 70.0375C14.7652 70.085 15.0057 70.1325 15.2398 70.18C15.8663 70.2988 16.2523 70.0553 16.3852 69.4614C16.651 68.2439 16.9231 67.0264 17.1889 65.803C17.3281 65.1497 17.4673 64.4905 17.5938 63.9084ZM13.5692 88.4661C14.1514 82.2361 16.5054 76.5347 19.2581 70.8867C19.1759 70.9342 19.1506 70.9461 19.1316 70.9699C19.0556 71.053 18.986 71.1362 18.9164 71.2252C17.6761 72.7516 16.6953 74.4204 15.8663 76.1665C14.2146 79.6408 13.1135 83.2695 12.3352 86.9932C12.2339 87.4743 12.1707 87.9553 12.0884 88.4661C12.6263 88.4661 13.0882 88.4661 13.5692 88.4661ZM2.08365 76.6653C2.12795 76.7544 2.17225 76.8435 2.21022 76.9326C2.71014 78.0194 3.2417 79.1003 3.69099 80.205C4.51997 82.242 5.11482 84.3444 5.26669 86.5359C5.31099 87.1714 5.27302 87.8128 5.27302 88.4601C5.82989 88.4601 6.37411 88.4601 6.91833 88.4601C6.93098 88.4007 6.94364 88.3592 6.94364 88.3235C6.96895 87.1832 6.99427 86.0489 7.01325 84.9086C7.01325 84.8433 7.00692 84.772 6.98794 84.7067C6.57028 83.2101 5.99443 81.7728 5.19076 80.4128C4.35544 79.0112 3.33662 77.7462 2.08365 76.6653ZM9.59512 78.7143C9.22809 81.957 8.85473 85.2056 8.4877 88.4661C8.8927 88.4661 9.34199 88.4661 9.8166 88.4661C10.0064 85.1937 10.0444 81.9451 9.59512 78.7143Z" fill="white"/>
</svg>
