<svg xmlns="http://www.w3.org/2000/svg" width="17" height="19" viewBox="0 0 17 19"><defs><clipPath id="gm9wa"><path fill="#fff" d="M16.056 12.43c-1.63 0-3.185-.38-4.619-1.13a.904.904 0 0 0-.723-.046.977.977 0 0 0-.542.515l-.68 1.505c-2.04-1.252-3.733-3.064-4.906-5.246l1.41-.727a.992.992 0 0 0 .481-.58 1.082 1.082 0 0 0-.043-.773A11.752 11.752 0 0 1 5.376 1.01C5.376.452 4.953 0 4.43 0H.944C.424 0 0 .452 0 1.01c0 9.466 7.202 17.168 16.056 17.168.52 0 .944-.453.944-1.01v-3.729c0-.557-.423-1.01-.944-1.01z"/></clipPath></defs><g><g><path fill="none" stroke="#fff" stroke-miterlimit="20" stroke-width="2" d="M16.056 12.43c-1.63 0-3.185-.38-4.619-1.13a.904.904 0 0 0-.723-.046.977.977 0 0 0-.542.515l-.68 1.505c-2.04-1.252-3.733-3.064-4.906-5.246l1.41-.727a.992.992 0 0 0 .481-.58 1.082 1.082 0 0 0-.043-.773A11.752 11.752 0 0 1 5.376 1.01C5.376.452 4.953 0 4.43 0H.944C.424 0 0 .452 0 1.01c0 9.466 7.202 17.168 16.056 17.168.52 0 .944-.453.944-1.01v-3.729c0-.557-.423-1.01-.944-1.01z" clip-path="url(&quot;#gm9wa&quot;)"/></g></g></svg>