<svg xmlns="http://www.w3.org/2000/svg" xmlns:xlink="http://www.w3.org/1999/xlink" width="512" height="5558" viewBox="0 0 512 5558"><svg viewBox="0 0 129 129" width="129" height="129" id="arrow-down" y="0"><path d="M121.3 34.6c-1.6-1.6-4.2-1.6-5.8 0l-51 51.1-51.1-51.1c-1.6-1.6-4.2-1.6-5.8 0-1.6 1.6-1.6 4.2 0 5.8l53.9 53.9c.8.8 1.8 1.2 2.9 1.2 1 0 2.1-.4 2.9-1.2l53.9-53.9c1.7-1.6 1.7-4.2.1-5.8z"></path></svg><svg width="451.847" height="451.847" viewBox="0 0 451.847 451.847" id="arrow-down-fat" y="129"><path d="M225.923 354.706c-8.098 0-16.195-3.092-22.369-9.263L9.27 151.157c-12.359-12.359-12.359-32.397 0-44.751 12.354-12.354 32.388-12.354 44.748 0l171.905 171.915 171.906-171.909c12.359-12.354 32.391-12.354 44.744 0 12.365 12.354 12.365 32.392 0 44.751L248.292 345.449c-6.177 6.172-14.274 9.257-22.369 9.257z"></path></svg><svg width="18" height="12" viewBox="0 0 18 12" id="arrow-left-coner" y="581"><path data-name="Path 1406" d="M6 12a.908.908 0 0 0 .7-.3.967.967 0 0 0 0-1.4l-5-5A.99.99 0 0 0 .3 6.7l5 5a.908.908 0 0 0 .7.3z"></path><path data-name="Path 1407" d="M1 7a.908.908 0 0 0 .7-.3l5-5A.99.99 0 1 0 5.3.3l-5 5a.967.967 0 0 0 0 1.4.908.908 0 0 0 .7.3z"></path><path data-name="Path 1408" d="M1 7h16a1 1 0 0 0 0-2H1a1 1 0 0 0 0 2z"></path></svg><svg width="18" height="12" viewBox="0 0 18 12" id="arrow-right-coner" y="593"><path data-name="Path 1406" d="M12 12a.908.908 0 0 1-.7-.3.967.967 0 0 1 0-1.4l5-5a.99.99 0 0 1 1.4 1.4l-5 5a.908.908 0 0 1-.7.3z"></path><path data-name="Path 1407" d="M17 7a.908.908 0 0 1-.7-.3l-5-5A.99.99 0 0 1 12.7.3l5 5a.967.967 0 0 1 0 1.4.908.908 0 0 1-.7.3z"></path><path data-name="Path 1408" d="M17 7H1a1 1 0 0 1 0-2h16a1 1 0 0 1 0 2z"></path></svg><svg width="64" height="64" viewBox="0 0 64 64" id="arrow-up" y="605"><path d="M3.352 48.296l28.56-28.328 28.58 28.347c.397.394.917.59 1.436.59.52 0 1.04-.196 1.436-.59a2.003 2.003 0 0 0 0-2.849l-29.98-29.735c-.2-.2-.494-.375-.757-.475a2.052 2.052 0 0 0-2.166.456L.479 45.447a2.003 2.003 0 0 0 0 2.849 2.045 2.045 0 0 0 2.873 0z"></path></svg><svg width="65" height="64" viewBox="0 0 65 64" fill="none" id="calendar" y="669"><path d="M6.5 37.5v25H64v-55h-9.5" stroke="#000" stroke-width="2"></path><path d="M7.406 5.5A18.66 18.66 0 0 0 5 8.01 18.422 18.422 0 0 0 1 19.5C1 29.717 9.283 38 19.5 38S38 29.717 38 19.5 29.717 1 19.5 1c-2.67 0-5.208.566-7.5 1.583M7.406 5.5H.5m6.906 0v7" stroke="#000" stroke-width="2"></path><path d="M19 8v11l5.5 4M37 7.5h11.5m-8 11.5h23M39 27h15m-20.5 9H54m-38.5 9H54m-38.5 9H54m-1-27v27m-9-27v27m-9.25-18v18.5M25.5 39v15m-9-15v15M49 2h5v11h-5z" stroke="#000" stroke-width="2"></path></svg><svg width="167" height="110" viewBox="0 0 167 110" fill="none" id="car-mark" y="733"><path d="M110.691 1H8.165L3.369 34.57h43.81l20.869 12.703h34.477l19.961-12.702h25.859l-7.712-17.693v-6.351L110.691 1z" stroke="green" stroke-width="2"></path><path d="M121.579 29.127l-7.259-19.054 24.951 7.712 6.805 15.878h-4.536l-19.961-4.536z" fill="green" stroke="green" stroke-width="2"></path><path fill-rule="evenodd" clip-rule="evenodd" d="M166.945 75.852c0 18.791-15.233 34.025-34.024 34.025S98.897 94.643 98.897 75.852c0-18.79 15.233-34.024 34.024-34.024s34.024 15.233 34.024 34.024zm-2.459 0c0 17.433-14.132 31.565-31.565 31.565-17.432 0-31.564-14.132-31.564-31.565 0-17.432 14.132-31.564 31.564-31.564 17.433 0 31.565 14.132 31.565 31.564zm-96.438 0c0 18.792-15.233 34.025-34.024 34.025C15.234 109.877 0 94.644 0 75.853s15.233-34.025 34.024-34.025 34.024 15.233 34.024 34.025zm-2.46 0c0 17.433-14.131 31.565-31.564 31.565S2.459 93.285 2.459 75.852c0-17.432 14.132-31.564 31.565-31.564 17.432 0 31.564 14.132 31.564 31.564zM34.023 60.597c7.924 0 14.348 6.424 14.348 14.348s-6.424 14.348-14.348 14.348-14.347-6.424-14.347-14.348S26.1 60.597 34.023 60.597zm0 18.857a4.51 4.51 0 1 0 0-9.018 4.51 4.51 0 0 0 0 9.018zm113.245-3.602c0-7.924-6.423-14.347-14.347-14.347-7.924 0-14.348 6.423-14.348 14.347 0 7.924 6.424 14.348 14.348 14.348s14.347-6.424 14.347-14.348zm-9.838 0a4.51 4.51 0 1 1-9.018 0 4.51 4.51 0 0 1 9.018 0z" fill="green"></path><path fill-rule="evenodd" clip-rule="evenodd" d="M3.176 54.258V35.024h43.55l21.776 12.703h33.571l19.961-12.703h26.765l8.931 12.504a37.508 37.508 0 0 0-24.808-9.328c-20.796 0-37.654 16.858-37.654 37.653 0 .609.015 1.214.043 1.815H71.635c.029-.601.043-1.206.043-1.815 0-20.795-16.858-37.653-37.653-37.653-12.761 0-24.04 6.348-30.85 16.058z" fill="green"></path><path d="M3.176 35.024v-.5h-.5v.5h.5zm0 19.234h-.5v1.584l.91-1.297-.41-.287zm43.55-19.234l.253-.431-.117-.069h-.135v.5zm21.776 12.703l-.252.432.117.068h.135v-.5zm33.571 0v.5h.145l.123-.078-.268-.422zm19.961-12.703v-.5h-.146l-.123.079.269.421zm26.765 0l.407-.29-.149-.21h-.258v.5zm8.931 12.504l-.329.376.736-.667-.407.29zm-62.419 30.14v.5h.524l-.024-.524-.5.024zm-23.676 0l-.5-.024-.024.524h.524v-.5zM2.675 35.024v19.234h1V35.024h-1zm44.052-.5H3.176v1h43.55v-1zm22.027 12.77l-21.774-12.7-.504.863L68.25 48.16l.504-.864zm33.319-.067h-33.57v1h33.57v-1zm19.692-12.624l-19.961 12.702.537.844 19.961-12.703-.537-.843zm27.034-.079h-26.765v1h26.765v-1zm9.338 12.713l-8.931-12.503-.813.581 8.931 12.503.813-.58zM132.922 38.7a37.01 37.01 0 0 1 24.479 9.204l.659-.752a38.01 38.01 0 0 0-25.138-9.452v1zM95.768 75.853c0-20.519 16.634-37.153 37.154-37.153v-1c-21.072 0-38.154 17.082-38.154 38.153h1zm.043 1.791a37.86 37.86 0 0 1-.043-1.79h-1c0 .616.015 1.229.044 1.838l.999-.048zm-24.176.524h23.676v-1H71.635v1zm-.457-2.315a38 38 0 0 1-.042 1.791l.999.048c.029-.61.043-1.222.043-1.838h-1zM34.025 38.7c20.52 0 37.153 16.634 37.153 37.153h1c0-21.071-17.082-38.153-38.153-38.153v1zM3.585 54.545c6.72-9.582 17.849-15.845 30.44-15.845v-1c-12.93 0-24.359 6.433-31.259 16.27l.82.575z" fill="green"></path></svg><svg viewBox="0 0 26 26" width="26" height="26" id="checked" y="843"><path d="M.3 14c-.2-.2-.3-.5-.3-.7s.1-.5.3-.7l1.4-1.4c.4-.4 1-.4 1.4 0l.1.1 5.5 5.9c.2.2.5.2.7 0L22.8 3.3h.1c.4-.4 1-.4 1.4 0l1.4 1.4c.4.4.4 1 0 1.4l-16 16.6c-.2.2-.4.3-.7.3-.3 0-.5-.1-.7-.3L.5 14.3.3 14z"></path></svg><svg width="18" height="18.106" viewBox="0 0 18 18.106" id="close" y="869"><path d="M10.379 9.018l7.034-7.158a1.115 1.115 0 0 0 0-1.544 1.069 1.069 0 0 0-1.517 0L8.862 7.474 1.825.316a1.069 1.069 0 0 0-1.517 0 1.115 1.115 0 0 0 0 1.544l7.037 7.158L.31 16.175a1.115 1.115 0 0 0 0 1.544 1.091 1.091 0 0 0 1.655 0l7.034-7.158 7.034 7.158a1 1 0 0 0 .828.281 1.937 1.937 0 0 0 .828-.281 1.115 1.115 0 0 0 0-1.544z"></path></svg><svg width="74" height="43" viewBox="0 0 74 43" fill="none" id="construction" y="888"><rect x="1" y="1" width="23" height="10" rx="5" fill="#fff" stroke="#000" stroke-width="2"></rect><rect x="1" y="32" width="23" height="10" rx="5" fill="#fff" stroke="#000" stroke-width="2"></rect><rect x="51" y="1" width="22" height="10" rx="5" fill="#fff" stroke="#000" stroke-width="2"></rect><path d="M51 37a5 5 0 0 1 5-5h12a5 5 0 0 1 0 10H56a5 5 0 0 1-5-5z" fill="#fff" stroke="#000" stroke-width="2"></path><path d="M13 12v20m49-20v20M13 21h49" stroke="#000" stroke-width="2"></path><circle cx="13" cy="21" r="5" fill="#000"></circle><circle cx="62" cy="21" r="5" fill="#000"></circle></svg><svg width="76" height="73" viewBox="0 0 76 73" fill="none" id="control" y="931"><path stroke="#000" stroke-width="2" d="M1 67h74v5H1zm7-10h60v10H8zm27-10h6v10h-6zM29 5h18v42H29V17.41M34 1h8v4h-8z"></path><path stroke="#000" d="M38.5 9.5h4v1h-4zm0 6h4v1h-4zm0 6h4v1h-4zm0 6h4v1h-4zm0 6h4v1h-4zm0 6h4v1h-4z"></path><path stroke="#000" stroke-width="2" d="M54 53h6v4h-6zM29.5 18a6.5 6.5 0 1 1 0-13"></path></svg><svg width="63" height="57" viewBox="0 0 63 57" fill="none" id="engine" y="1004"><path stroke="#000" stroke-width="2" d="M54 1h8v20h-8z"></path><circle cx="25" cy="30" r="12" stroke="#000" stroke-width="2"></circle><circle r="2" transform="matrix(1 0 0 -1 25 30)" stroke="#000" stroke-width="2"></circle><path d="M53.5 18H26M9.972 46L8 51v5h35v-5l-2.958-5" stroke="#000" stroke-width="2"></path><path d="M54.5 4.5H25c-1.834 0-6.3.3-9.5 1.5C8 8.813 2.839 17.028 2 25c-1 9.5 4.5 19.5 13.5 23s19.5 2 25-3S49 35 49 28.5c0-2.8-1.334-7.833-2-10m-30.5 11h17m-12.75-7.361l8.5 14.722m0-14.722l-8.5 14.722" stroke="#000" stroke-width="2"></path></svg><svg width="59" height="49" viewBox="0 0 59 49" fill="none" id="gearbox" y="1061"><circle cx="7.722" cy="7.078" r="6.078" stroke="#000" stroke-width="2"></circle><circle cx="7.722" cy="41.922" r="6.078" stroke="#000" stroke-width="2"></circle><circle cx="29.5" cy="7.078" r="6.078" stroke="#000" stroke-width="2"></circle><circle cx="29.5" cy="41.922" r="6.078" stroke="#000" stroke-width="2"></circle><circle cx="51.278" cy="7.078" r="6.078" stroke="#000" stroke-width="2"></circle><path d="M7.722 13.067v22.866M29.5 13.067v22.866m21.778-11.977h-44.1m44.1-10.89v11.978" stroke="#000" stroke-width="2"></path></svg><svg width="18.393" height="23.039" viewBox="0 0 18.393 23.039" id="location" y="1110"><g data-name="Group 3524"><path data-name="Path 10785" d="M9.191 12.245H9.2a3.8 3.8 0 0 0 0-7.6 3.8 3.8 0 0 0-3.8 3.8v.019a3.79 3.79 0 0 0 3.791 3.781zm.009-6a2.2 2.2 0 1 1-2.2 2.2 2.2 2.2 0 0 1 2.2-2.2z"></path><path data-name="Path 10786" d="M8.679 22.855a.821.821 0 0 0 1.035 0c.111-.083 8.679-7.4 8.679-13.909A9.2 9.2 0 0 0 0 8.958c0 6.303 8.3 13.57 8.679 13.897zM3.824 3.574A7.6 7.6 0 0 1 16.8 8.945c0 4.321-4.588 9.353-7.324 11.967a.4.4 0 0 1-.552 0C6.187 18.3 1.6 13.268 1.6 8.945a7.542 7.542 0 0 1 2.224-5.371z"></path></g></svg><svg width="64" height="64" viewBox="0 0 64 64" fill="none" id="map" y="1134"><path d="M23.5 13L17 16.5 1 8v46.5l16 8L31.5 55 48 62.5l14.5-8V9L48 16.5" stroke="#000" stroke-width="2"></path><circle cx="36" cy="14" r="5" stroke="#000" stroke-width="2"></circle><path d="M48 13c0 1.613-.512 3.656-1.401 5.949-.883 2.276-2.109 4.725-3.469 7.125a100.215 100.215 0 0 1-7.153 10.831c-2.528-3.115-5.375-7.216-7.663-11.382C25.762 20.878 24 16.32 24 13c0-6.627 5.373-12 12-12s12 5.373 12 12z" stroke="#000" stroke-width="2"></path></svg><svg width="17.601" height="15.6" viewBox="0 0 17.601 15.6" id="menu" y="1198"><path data-name="Union 193" d="M.8 15.601a.859.859 0 0 1-.8-.8.861.861 0 0 1 .8-.8h16a.863.863 0 0 1 .8.8.86.86 0 0 1-.8.8zm0-7a.859.859 0 0 1-.8-.8.859.859 0 0 1 .8-.8h16a.86.86 0 0 1 .8.8.861.861 0 0 1-.8.8zm0-7a.859.859 0 0 1-.8-.8.861.861 0 0 1 .8-.8h16a.863.863 0 0 1 .8.8.86.86 0 0 1-.8.8z"></path></svg><svg width="72" height="60" viewBox="0 0 72 60" fill="none" id="paint" y="1214"><path d="M10.823 37.647v-7.341h19.412l8.235-6.777h14.706v14.118H10.823z" stroke="#000" stroke-width="2"></path><path stroke="#000" stroke-width="2" d="M53 21h6.235v19.177H53zm-24.353-1.588a7.824 7.824 0 0 1-15.647 0V4.53h15.647v14.882z"></path><path stroke="#000" stroke-width="2" d="M9.471 1h22.706v3.882H9.471zM8.67 59l6.998-21.53h10.633L16.074 59H8.671zM1.235 31.588H11v3.882H1.235zm27.235 6.059v9.412m34.118-16.471H72m-8.78-4.706l8.15-4.706m-8.15 14.118L71.37 40"></path></svg><svg viewBox="0 0 405.333 405.333" width="405.333" height="405.333" id="phone" y="1274"><path d="M373.333 266.88c-25.003 0-49.493-3.904-72.725-11.584-11.328-3.904-24.171-.896-31.637 6.699l-46.016 34.752c-52.779-28.16-86.571-61.931-114.389-114.368l33.813-44.928c8.512-8.533 11.563-20.971 7.915-32.64C142.592 81.472 138.667 56.96 138.667 32c0-17.643-14.357-32-32-32H32C14.357 0 0 14.357 0 32c0 205.845 167.488 373.333 373.333 373.333 17.643 0 32-14.357 32-32V298.88c0-17.643-14.357-32-32-32zM384 373.333c0 5.888-4.8 10.667-10.667 10.667-194.091 0-352-157.909-352-352 0-5.888 4.8-10.667 10.667-10.667h74.667c5.867 0 10.667 4.779 10.667 10.667 0 27.243 4.267 53.995 12.629 79.36 1.237 3.989.235 8.107-3.669 12.16l-38.827 51.413a10.665 10.665 0 0 0-.981 11.264c31.637 62.144 70.059 100.587 132.651 132.651 3.605 1.877 8.021 1.493 11.285-.981l52.523-39.808a10.7 10.7 0 0 1 10.859-2.539c25.515 8.427 52.267 12.693 79.531 12.693 5.867 0 10.667 4.779 10.667 10.667v74.453z"></path></svg><svg width="23" height="23" viewBox="0 0 23 23" id="search" y="1680"><path d="M12.989 17.206a7.369 7.369 0 0 1-5.184-2.153l-.002-.002c-2.86-2.865-2.857-7.523.008-10.384a7.293 7.293 0 0 1 5.19-2.148h.004a7.291 7.291 0 0 1 5.19 2.155c2.862 2.865 2.859 7.524-.005 10.384A7.298 7.298 0 0 1 13 17.206zm-11.86 5.649c.29 0 .58-.111.8-.331L7.052 17.4a9.652 9.652 0 0 0 5.936 2.064H13a9.54 9.54 0 0 0 6.785-2.808c3.747-3.742 3.75-9.834.008-13.58A9.54 9.54 0 0 0 13.006.26H13a9.54 9.54 0 0 0-6.786 2.808c-3.475 3.472-3.73 8.967-.76 12.735L.331 20.926a1.127 1.127 0 0 0 0 1.598c.221.22.51.33.799.33z"></path></svg><svg viewBox="0 0 512 512" width="512" height="512" id="soc-facebook" y="1703"><path d="M134.941 272.691h56.123v231.051a8.256 8.256 0 0 0 8.258 8.258h95.159a8.256 8.256 0 0 0 8.258-8.258V273.78h64.519a8.26 8.26 0 0 0 8.204-7.315l9.799-85.061a8.259 8.259 0 0 0-8.202-9.203h-74.316V118.88c0-16.073 8.654-24.224 25.726-24.224h48.59a8.258 8.258 0 0 0 8.258-8.258V8.319a8.256 8.256 0 0 0-8.258-8.258h-66.965A65.863 65.863 0 0 0 307.027 0c-11.619 0-52.006 2.281-83.909 31.63-35.348 32.524-30.434 71.465-29.26 78.217v62.352H134.94a8.256 8.256 0 0 0-8.258 8.258v83.975a8.26 8.26 0 0 0 8.259 8.259z"></path></svg><svg width="430.117" height="430.117" viewBox="0 0 430.117 430.117" id="soc-in" y="2215"><path d="M430.117 261.543V420.56h-92.188V272.193c0-37.271-13.334-62.707-46.703-62.707-25.473 0-40.632 17.142-47.301 33.724-2.432 5.928-3.058 14.179-3.058 22.477V420.56h-92.219s1.242-251.285 0-277.32h92.21v39.309c-.187.294-.43.611-.606.896h.606v-.896c12.251-18.869 34.13-45.824 83.102-45.824 60.673-.001 106.157 39.636 106.157 124.818zM52.183 9.558C20.635 9.558 0 30.251 0 57.463c0 26.619 20.038 47.94 50.959 47.94h.616c32.159 0 52.159-21.317 52.159-47.94-.606-27.212-20-47.905-51.551-47.905zM5.477 420.56h92.184V143.24H5.477v277.32z"></path></svg><svg width="438.536" height="438.536" viewBox="0 0 438.536 438.536" id="soc-instagram" y="2646"><path d="M421.981 16.562C410.941 5.519 397.711 0 382.298 0H56.248C40.83 0 27.604 5.521 16.561 16.562 5.52 27.6.001 40.828.001 56.243V382.29c0 15.413 5.518 28.644 16.56 39.683 11.043 11.04 24.272 16.563 39.687 16.563h326.046c15.41 0 28.644-5.523 39.684-16.563 11.043-11.039 16.557-24.27 16.557-39.683V56.243c-.001-15.418-5.514-28.639-16.554-39.681zM157.462 158.025c17.224-16.652 37.924-24.982 62.097-24.982 24.36 0 45.153 8.33 62.381 24.982 17.228 16.655 25.837 36.785 25.837 60.386 0 23.598-8.609 43.729-25.837 60.379-17.228 16.659-38.014 24.988-62.381 24.988-24.172 0-44.87-8.336-62.097-24.988-17.228-16.652-25.841-36.781-25.841-60.379 0-23.601 8.613-43.73 25.841-60.386zm231.403 212.564c0 4.945-1.718 9.083-5.141 12.416-3.433 3.33-7.519 4.996-12.282 4.996h-305.2c-4.948 0-9.091-1.666-12.419-4.996-3.333-3.326-4.998-7.471-4.998-12.416V185.575H89.08c-3.805 11.993-5.708 24.462-5.708 37.402 0 36.553 13.322 67.715 39.969 93.511 26.65 25.786 58.721 38.685 96.217 38.685 24.744 0 47.583-5.903 68.527-17.703 20.937-11.807 37.486-27.839 49.676-48.112 12.183-20.272 18.274-42.4 18.274-66.38 0-12.94-1.91-25.406-5.715-37.402h38.547V370.59h-.002zm0-254.963c0 5.52-1.903 10.184-5.716 13.99-3.805 3.809-8.466 5.711-13.989 5.711h-49.676c-5.517 0-10.185-1.903-13.99-5.711-3.806-3.806-5.708-8.47-5.708-13.99V68.522c0-5.33 1.902-9.945 5.708-13.848 3.806-3.901 8.474-5.854 13.99-5.854h49.676c5.523 0 10.185 1.952 13.989 5.854 3.812 3.903 5.716 8.518 5.716 13.848v47.104z"></path></svg><svg width="17" height="19" viewBox="0 0 17 19" id="soc-msg" y="3085"><path d="M0 8.693c0 2.622 1.235 4.962 3.167 6.49v3.177l2.894-1.681c.773.225 1.59.348 2.439.348 4.694 0 8.5-3.73 8.5-8.333S13.195.36 8.5.36C3.806.36 0 4.09 0 8.693zM7.604 6.36L9.82 8.803l4.17-2.444-4.647 5.222L7.18 9.137l-4.224 2.444L7.604 6.36z"></path></svg><svg width="95.481" height="95.481" viewBox="0 0 95.481 95.481" id="soc-ok" y="3104"><path d="M43.041 67.254c-7.402-.772-14.076-2.595-19.79-7.064-.709-.556-1.441-1.092-2.088-1.713-2.501-2.402-2.753-5.153-.774-7.988 1.693-2.426 4.535-3.075 7.489-1.682.572.27 1.117.607 1.639.969 10.649 7.317 25.278 7.519 35.967.329 1.059-.812 2.191-1.474 3.503-1.812 2.551-.655 4.93.282 6.299 2.514 1.564 2.549 1.544 5.037-.383 7.016-2.956 3.034-6.511 5.229-10.461 6.761-3.735 1.448-7.826 2.177-11.875 2.661.611.665.899.992 1.281 1.376 5.498 5.524 11.02 11.025 16.5 16.566 1.867 1.888 2.257 4.229 1.229 6.425-1.124 2.4-3.64 3.979-6.107 3.81-1.563-.108-2.782-.886-3.865-1.977-4.149-4.175-8.376-8.273-12.441-12.527-1.183-1.237-1.752-1.003-2.796.071-4.174 4.297-8.416 8.528-12.683 12.735-1.916 1.889-4.196 2.229-6.418 1.15-2.362-1.145-3.865-3.556-3.749-5.979.08-1.639.886-2.891 2.011-4.014 5.441-5.433 10.867-10.88 16.295-16.322.359-.362.694-.746 1.217-1.305z"></path><path d="M47.55 48.329c-13.205-.045-24.033-10.992-23.956-24.218C23.67 10.739 34.505-.037 47.84 0c13.362.036 24.087 10.967 24.02 24.478-.068 13.199-10.971 23.897-24.31 23.851zm12.001-24.186c-.023-6.567-5.253-11.795-11.807-11.801-6.609-.007-11.886 5.316-11.835 11.943.049 6.542 5.324 11.733 11.896 11.709 6.552-.023 11.768-5.285 11.746-11.851z"></path></svg><svg viewBox="0 0 300 300" width="300" height="300" id="soc-telegram" y="3200"><path d="M5.299 144.645l69.126 25.8 26.756 86.047c1.712 5.511 8.451 7.548 12.924 3.891l38.532-31.412a11.496 11.496 0 0 1 14.013-.391l69.498 50.457c4.785 3.478 11.564.856 12.764-4.926L299.823 29.22c1.31-6.316-4.896-11.585-10.91-9.259L5.218 129.402c-7.001 2.7-6.94 12.612.081 15.243zm91.57 12.066l135.098-83.207c2.428-1.491 4.926 1.792 2.841 3.726L123.313 180.87a23.112 23.112 0 0 0-7.163 13.829l-3.798 28.146c-.503 3.758-5.782 4.131-6.819.494l-14.607-51.325c-1.673-5.854.765-12.107 5.943-15.303z"></path></svg><svg viewBox="0 0 410.155 410.155" width="410.155" height="410.155" id="soc-twitter" y="3500"><path d="M403.632 74.18a162.414 162.414 0 0 1-28.28 9.537 88.177 88.177 0 0 0 23.275-37.067c1.295-4.051-3.105-7.554-6.763-5.385a163.188 163.188 0 0 1-43.235 17.862 11.02 11.02 0 0 1-2.702.336c-2.766 0-5.455-1.027-7.57-2.891-16.156-14.239-36.935-22.081-58.508-22.081-9.335 0-18.76 1.455-28.014 4.325-28.672 8.893-50.795 32.544-57.736 61.724-2.604 10.945-3.309 21.9-2.097 32.56a3.166 3.166 0 0 1-.797 2.481 3.278 3.278 0 0 1-2.753 1.091c-62.762-5.831-119.358-36.068-159.363-85.14-2.04-2.503-5.952-2.196-7.578.593-7.834 13.44-11.974 28.812-11.974 44.454 0 23.972 9.631 46.563 26.36 63.032a79.24 79.24 0 0 1-20.169-7.808c-3.06-1.7-6.825.485-6.868 3.985-.438 35.612 20.412 67.3 51.646 81.569a79.567 79.567 0 0 1-16.786-1.399c-3.446-.658-6.341 2.611-5.271 5.952 10.138 31.651 37.39 54.981 70.002 60.278-27.066 18.169-58.585 27.753-91.39 27.753l-10.227-.006c-3.151 0-5.816 2.054-6.619 5.106-.791 3.006.666 6.177 3.353 7.74 36.966 21.513 79.131 32.883 121.955 32.883 37.485 0 72.549-7.439 104.219-22.109 29.033-13.449 54.689-32.674 76.255-57.141 20.09-22.792 35.8-49.103 46.692-78.201 10.383-27.737 15.871-57.333 15.871-85.589v-1.346c-.001-4.537 2.051-8.806 5.631-11.712a174.776 174.776 0 0 0 35.16-38.591c2.573-3.849-1.485-8.673-5.719-6.795z"></path></svg><svg viewBox="0 0 512 512" width="512" height="512" id="soc-vk" y="3911"><path d="M440.649 295.361c16.984 16.582 34.909 32.182 50.142 50.436 6.729 8.112 13.099 16.482 17.973 25.896 6.906 13.382.651 28.108-11.348 28.907l-74.59-.034c-19.238 1.596-34.585-6.148-47.489-19.302-10.327-10.519-19.891-21.714-29.821-32.588-4.071-4.444-8.332-8.626-13.422-11.932-10.182-6.609-19.021-4.586-24.84 6.034-5.926 10.802-7.271 22.762-7.853 34.8-.799 17.564-6.108 22.182-23.751 22.986-37.705 1.778-73.489-3.926-106.732-22.947-29.308-16.768-52.034-40.441-71.816-67.24-38.513-52.183-68.008-109.525-94.516-168.473-5.967-13.281-1.603-20.41 13.051-20.663 24.333-.473 48.663-.439 73.025-.034 9.89.145 16.437 5.817 20.256 15.16 13.165 32.371 29.274 63.169 49.494 91.716 5.385 7.6 10.876 15.201 18.694 20.55 8.65 5.923 15.236 3.96 19.305-5.676 2.582-6.11 3.713-12.691 4.295-19.234 1.928-22.513 2.182-44.988-1.199-67.422-2.076-14.001-9.962-23.065-23.933-25.714-7.129-1.351-6.068-4.004-2.616-8.073 5.995-7.018 11.634-11.387 22.875-11.387h84.298c13.271 2.619 16.218 8.581 18.035 21.934l.072 93.637c-.145 5.169 2.582 20.51 11.893 23.931 7.452 2.436 12.364-3.526 16.836-8.251 20.183-21.421 34.588-46.737 47.457-72.951 5.711-11.527 10.622-23.497 15.381-35.458 3.526-8.875 9.059-13.242 19.056-13.049l81.132.072c2.406 0 4.84.035 7.17.434 13.671 2.33 17.418 8.211 13.195 21.561-6.653 20.945-19.598 38.4-32.255 55.935-13.53 18.721-28.001 36.802-41.418 55.634-12.328 17.2-11.349 25.868 3.964 40.805z"></path></svg><svg viewBox="0 0 512 512" width="512" height="512" id="soc-whatsapp" y="4423"><path d="M256.064 0h-.128C114.784 0 0 114.816 0 256c0 56 18.048 107.904 48.736 150.048l-31.904 95.104 98.4-31.456C155.712 496.512 204 512 256.064 512 397.216 512 512 397.152 512 256S397.216 0 256.064 0zm148.96 361.504c-6.176 17.44-30.688 31.904-50.24 36.128-13.376 2.848-30.848 5.12-89.664-19.264-75.232-31.168-123.68-107.616-127.456-112.576-3.616-4.96-30.4-40.48-30.4-77.216s18.656-54.624 26.176-62.304c6.176-6.304 16.384-9.184 26.176-9.184 3.168 0 6.016.16 8.576.288 7.52.32 11.296.768 16.256 12.64 6.176 14.88 21.216 51.616 23.008 55.392 1.824 3.776 3.648 8.896 1.088 13.856-2.4 5.12-4.512 7.392-8.288 11.744-3.776 4.352-7.36 7.68-11.136 12.352-3.456 4.064-7.36 8.416-3.008 15.936 4.352 7.36 19.392 31.904 41.536 51.616 28.576 25.44 51.744 33.568 60.032 37.024 6.176 2.56 13.536 1.952 18.048-2.848 5.728-6.176 12.8-16.416 20-26.496 5.12-7.232 11.584-8.128 18.368-5.568 6.912 2.4 43.488 20.48 51.008 24.224 7.52 3.776 12.48 5.568 14.304 8.736 1.792 3.168 1.792 18.048-4.384 35.52z"></path></svg><svg viewBox="0 0 512 512" width="512" height="512" id="soc-youtube" y="4935"><path d="M490.24 113.92c-13.888-24.704-28.96-29.248-59.648-30.976C399.936 80.864 322.848 80 256.064 80c-66.912 0-144.032.864-174.656 2.912-30.624 1.76-45.728 6.272-59.744 31.008C7.36 138.592 0 181.088 0 255.904v.256c0 74.496 7.36 117.312 21.664 141.728 14.016 24.704 29.088 29.184 59.712 31.264C112.032 430.944 189.152 432 256.064 432c66.784 0 143.872-1.056 174.56-2.816 30.688-2.08 45.76-6.56 59.648-31.264C504.704 373.504 512 330.688 512 256.192v-.256c0-74.848-7.296-117.344-21.76-142.016zM192 352V160l160 96-160 96z"></path></svg><svg width="48" height="74" viewBox="0 0 48 74" fill="none" id="tire" y="5447"><path fill-rule="evenodd" clip-rule="evenodd" d="M12.685 0h22.63C43.551 0 47.99 18.908 47.99 36.705c0 17.797-4.507 36.705-12.677 36.705H12.685C4.448 73.41.009 54.502.009 36.705.009 18.908 4.516 0 12.685 0zM2.732 36.705c0 20.047 5.242 33.929 9.953 33.929l1.253.125-1.934-2.777a1.406 1.406 0 0 1-.258-.735l-.273-5.79-3.826-5.08a1.41 1.41 0 0 1-.204-1.306l1.73-4.97-3.228-5.927a1.413 1.413 0 0 1 0-1.25l2.342-5.206-2.342-5.205a1.413 1.413 0 0 1 0-1.222l2.941-5.692-1.797-6.941a1.404 1.404 0 0 1 .463-1.389l3.404-2.776.517-5.83a1.4 1.4 0 0 1 .45-.903 23.756 23.756 0 0 0 3.485-4.984h-2.723c-4.711 0-9.953 13.883-9.953 33.93zm11.737 29.903l2.914 4.026 5.01.125-1.933-2.777a1.405 1.405 0 0 1-.26-.735l-.285-5.79-3.88-5.08a1.41 1.41 0 0 1-.205-1.306l1.73-4.97-3.227-5.927a1.412 1.412 0 0 1 0-1.25l2.341-5.206-2.341-5.205a1.413 1.413 0 0 1 0-1.222l2.94-5.692-1.797-6.941a1.404 1.404 0 0 1 .463-1.389l3.404-2.776.545-5.83c.033-.348.193-.67.45-.903a23.76 23.76 0 0 0 3.485-4.984h-5.27a34.742 34.742 0 0 1-4.425 6.664l-.517 5.845a1.395 1.395 0 0 1-.504.957l-3.186 2.555 1.702 6.524c.088.336.049.692-.109 1l-2.873 5.65 2.329 5.164c.167.37.167.797 0 1.167l-2.329 5.15 3.186 5.858c.19.348.225.763.095 1.139l-1.688 4.845 3.636 4.817c.168.22.268.485.286.764l.313 5.733zm8.441.014l2.873 4.012h4.453c-4.956-5.886-7.598-20.24-7.598-33.929 0-13.688 2.642-28.042 7.57-33.914h-3.322a34.768 34.768 0 0 1-4.384 6.649l-.517 5.845a1.395 1.395 0 0 1-.504.957l-3.159 2.555 1.702 6.524c.087.336.049.692-.109 1l-2.86 5.65 2.397 5.164c.168.37.168.797 0 1.167l-2.328 5.15 3.186 5.858c.19.348.225.763.095 1.139l-1.688 4.845 3.635 4.817c.168.22.268.485.286.764l.272 5.747zm2.451-29.917c0 19.99 5.242 33.929 9.953 33.929 4.711 0 9.953-13.883 9.953-33.929 0-20.046-5.242-33.929-9.953-33.929-4.71 0-9.953 13.938-9.953 33.93zm3.323 0c0-8.871 1.497-25.641 7.12-25.641 5.624 0 7.108 16.77 7.108 25.641 0 8.871-1.47 25.641-7.107 25.641-5.637 0-7.121-16.77-7.121-25.64zm2.723 0c0 15.077 3.077 22.865 4.398 22.865 1.32 0 4.398-7.788 4.398-22.865h-.014c0-15.077-3.064-22.865-4.384-22.865-1.321 0-4.398 7.788-4.398 22.865z" fill="#000"></path></svg><svg width="79" height="37" viewBox="0 0 79 37" fill="none" id="transmision" y="5521"><path d="M1 8.48c0-3.692 4.536-6.857 7.911-6.857h58.541C73.781 1.623 78 5.315 78 8.48" stroke="#000" stroke-width="2"></path><path d="M64.815 8.48h-50.63c-1.758-.352-7.383 1.054-6.856 8.438.548 7.68 6.329 18.459 13.712 18.459h35.336c10.548 0 14.24-13.185 15.294-18.46 1.055-5.273-2.637-8.437-6.856-8.437z" stroke="#000" stroke-width="2"></path><circle cx="22.624" cy="23.774" r="5.856" stroke="#000" stroke-width="2"></circle><circle cx="13.658" cy="14.808" r="2.164" stroke="#000" stroke-width="2"></circle><circle cx="31.589" cy="14.808" r="2.164" stroke="#000" stroke-width="2"></circle><circle cx="48.466" cy="14.808" r="2.164" stroke="#000" stroke-width="2"></circle><circle cx="65.342" cy="14.808" r="2.164" stroke="#000" stroke-width="2"></circle><circle cx="39.5" cy="23.774" r="5.856" stroke="#000" stroke-width="2"></circle><circle cx="57.431" cy="23.774" r="5.856" stroke="#000" stroke-width="2"></circle></svg></svg>