<svg width="171" height="110" viewBox="0 0 171 110" fill="none" xmlns="http://www.w3.org/2000/svg">
<rect y="109" width="171" height="1" fill="white"/>
<path d="M107.963 12H31.0722L27.4756 37.1765H60.3314L75.9817 46.7028H101.839L116.808 37.1765H136.201L130.417 23.9078V19.1447L107.963 12Z" stroke="white" stroke-width="2"/>
<path d="M116.128 33.0941L110.685 18.8047L129.397 24.5885L134.5 36.4963H131.098L116.128 33.0941Z" fill="white" stroke="white" stroke-width="2"/>
<path fill-rule="evenodd" clip-rule="evenodd" d="M150.151 68.1369C150.151 82.2294 138.727 93.6536 124.634 93.6536C110.542 93.6536 99.1173 82.2294 99.1173 68.1369C99.1173 54.0443 110.542 42.6201 124.634 42.6201C138.727 42.6201 150.151 54.0443 150.151 68.1369ZM148.305 68.1371C148.305 81.2108 137.707 91.8092 124.633 91.8092C111.56 91.8092 100.961 81.2108 100.961 68.1371C100.961 55.0633 111.56 44.4649 124.633 44.4649C137.707 44.4649 148.305 55.0633 148.305 68.1371ZM75.9817 68.1371C75.9817 82.2296 64.5575 93.6539 50.465 93.6539C36.3725 93.6539 24.9482 82.2296 24.9482 68.1371C24.9482 54.0446 36.3725 42.6204 50.465 42.6204C64.5575 42.6204 75.9817 54.0446 75.9817 68.1371ZM74.1367 68.1371C74.1367 81.2109 63.5383 91.8093 50.4645 91.8093C37.3908 91.8093 26.7924 81.2109 26.7924 68.1371C26.7924 55.0633 37.3908 44.465 50.4645 44.465C63.5383 44.465 74.1367 55.0633 74.1367 68.1371ZM50.4655 56.6964C56.4081 56.6964 61.2256 61.5139 61.2256 67.4565C61.2256 73.3991 56.4081 78.2166 50.4655 78.2166C44.5229 78.2166 39.7054 73.3991 39.7054 67.4565C39.7054 61.5139 44.5229 56.6964 50.4655 56.6964ZM50.4645 70.8382C52.3322 70.8382 53.8462 69.3241 53.8462 67.4564C53.8462 65.5888 52.3322 64.0747 50.4645 64.0747C48.5968 64.0747 47.0827 65.5888 47.0827 67.4564C47.0827 69.3241 48.5968 70.8382 50.4645 70.8382ZM135.394 68.1375C135.394 62.1948 130.576 57.3774 124.634 57.3774C118.691 57.3774 113.874 62.1948 113.874 68.1375C113.874 74.0801 118.691 78.8975 124.634 78.8975C130.576 78.8975 135.394 74.0801 135.394 68.1375ZM128.015 68.1376C128.015 70.0053 126.501 71.5194 124.634 71.5194C122.766 71.5194 121.252 70.0053 121.252 68.1376C121.252 66.27 122.766 64.7559 124.634 64.7559C126.501 64.7559 128.015 66.27 128.015 68.1376Z" fill="white"/>
<path fill-rule="evenodd" clip-rule="evenodd" d="M27.3281 51.9411V37.5166H59.9895L76.3203 47.0428H101.497L116.467 37.5166H136.54L143.238 46.8937C138.269 42.5383 131.759 39.8983 124.632 39.8983C109.036 39.8983 96.3936 52.5411 96.3936 68.1368C96.3936 68.593 96.4044 69.0467 96.4258 69.4976H78.6699C78.6913 69.0467 78.7021 68.593 78.7021 68.1368C78.7021 52.5411 66.0593 39.8983 50.4636 39.8983C40.8935 39.8983 32.4354 44.6589 27.3281 51.9411Z" fill="white"/>
<path d="M27.3281 37.5166V37.0166H26.8281V37.5166H27.3281ZM27.3281 51.9411H26.8281V53.5248L27.7375 52.2282L27.3281 51.9411ZM59.9895 37.5166L60.2415 37.0847L60.1247 37.0166H59.9895V37.5166ZM76.3203 47.0428L76.0683 47.4747L76.1851 47.5428H76.3203V47.0428ZM101.497 47.0428V47.5428H101.642L101.765 47.4647L101.497 47.0428ZM116.467 37.5166V37.0166H116.321L116.198 37.0948L116.467 37.5166ZM136.54 37.5166L136.947 37.226L136.797 37.0166H136.54V37.5166ZM143.238 46.8937L142.908 47.2697L143.645 46.6031L143.238 46.8937ZM96.4258 69.4976V69.9976H96.9501L96.9253 69.4739L96.4258 69.4976ZM78.6699 69.4976L78.1704 69.4739L78.1456 69.9976H78.6699V69.4976ZM26.8281 37.5166V51.9411H27.8281V37.5166H26.8281ZM59.9895 37.0166H27.3281V38.0166H59.9895V37.0166ZM76.5722 46.611L60.2415 37.0847L59.7376 37.9485L76.0683 47.4747L76.5722 46.611ZM101.497 46.5428H76.3203V47.5428H101.497V46.5428ZM116.198 37.0948L101.228 46.621L101.765 47.4647L116.735 37.9384L116.198 37.0948ZM136.54 37.0166H116.467V38.0166H136.54V37.0166ZM143.645 46.6031L136.947 37.226L136.133 37.8072L142.831 47.1843L143.645 46.6031ZM124.632 40.3983C131.633 40.3983 138.027 42.9912 142.908 47.2697L143.567 46.5177C138.511 42.0854 131.885 39.3983 124.632 39.3983V40.3983ZM96.8936 68.1368C96.8936 52.8172 109.313 40.3983 124.632 40.3983V39.3983C108.76 39.3983 95.8936 52.2649 95.8936 68.1368H96.8936ZM96.9253 69.4739C96.9043 69.0309 96.8936 68.5851 96.8936 68.1368H95.8936C95.8936 68.6009 95.9046 69.0625 95.9264 69.5213L96.9253 69.4739ZM78.6699 69.9976H96.4258V68.9976H78.6699V69.9976ZM78.2021 68.1368C78.2021 68.5851 78.1914 69.0309 78.1704 69.4739L79.1693 69.5213C79.1911 69.0625 79.2021 68.6009 79.2021 68.1368H78.2021ZM50.4636 40.3983C65.7831 40.3983 78.2021 52.8172 78.2021 68.1368H79.2021C79.2021 52.2649 66.3354 39.3983 50.4636 39.3983V40.3983ZM27.7375 52.2282C32.7552 45.0737 41.0634 40.3983 50.4636 40.3983V39.3983C40.7237 39.3983 32.1156 44.244 26.9188 51.654L27.7375 52.2282Z" fill="white"/>
<path d="M0.451172 96.3754L9.29697 89.9112L28.3495 97.7364L32.6114 95.1501L42.9791 97.0559L65.4338 95.3548L79.0427 99.7777L88.9092 91.9526L100.477 96.3754L108.302 95.0146L132.798 96.0352L145.046 93.6537L149.809 89.9112L160.696 93.3135L170.563 78.0034V107.263H0.451172V96.3754Z" fill="white"/>
<rect x="132" y="1" width="36" height="36" fill="white" stroke="black" stroke-width="2"/>
<path d="M163.009 18.8157H158.624L160.314 16.9861L159.156 15.7326L156.309 18.8157H152.422L154.366 15.17L158.255 14.0415L157.831 12.329L155.523 12.9987L157.716 8.88639L156.298 8L154.106 12.1123L153.487 9.61306L151.906 10.0719L152.948 14.2836L151.005 17.9293L149.061 14.2837L150.103 10.0718L148.522 9.61306L147.903 12.1123L145.711 8L144.293 8.88639L146.486 12.9987L144.178 12.329L143.754 14.0415L147.643 15.17L149.587 18.8157H145.7L142.853 15.7325L141.695 16.9861L143.385 18.8157H139V20.5886H143.385L141.695 22.4182L142.853 23.6718L145.7 20.5886H149.587L147.643 24.2343L143.754 25.3628L144.178 27.0753L146.486 26.4055L144.293 30.5179L145.711 31.4043L147.903 27.292L148.522 29.7913L150.103 29.3325L149.061 25.1207L151.005 21.475L152.948 25.1207L151.906 29.3325L153.487 29.7913L154.106 27.2919L156.298 31.4043L157.716 30.5179L155.523 26.4056L157.831 27.0753L158.255 25.3628L154.366 24.2343L152.422 20.5886H156.309L159.156 23.6718L160.314 22.4182L158.624 20.5886H163.009V18.8157Z" fill="black"/>
</svg>
